<svg height="512pt" viewBox="0 0 512 512" width="512pt" xmlns="http://www.w3.org/2000/svg"><path d="m437.019531 74.980469c-48.351562-48.351563-112.640625-74.980469-181.019531-74.980469-40.753906 0-81.308594 9.816406-117.277344 28.382812-34.796875 17.964844-65.515625 44.15625-88.828125 75.746094-2.484375 3.363282-1.769531 8.105469 1.597657 10.589844 3.363281 2.484375 8.105468 1.769531 10.589843-1.59375 45.28125-61.351562 117.773438-97.976562 193.917969-97.976562 132.804688 0 240.851562 108.046874 240.851562 240.851562s-108.046874 240.851562-240.851562 240.851562-240.851562-108.046874-240.851562-240.851562c0-39.644531 9.835937-78.941406 28.441406-113.644531 1.976562-3.683594.589844-8.277344-3.097656-10.253907-3.683594-1.972656-8.277344-.589843-10.253907 3.097657-19.78125 36.894531-30.238281 78.667969-30.238281 120.800781 0 68.378906 26.628906 132.667969 74.980469 181.019531 48.351562 48.351563 112.640625 74.980469 181.019531 74.980469s132.667969-26.628906 181.019531-74.980469c48.351563-48.351562 74.980469-112.640625 74.980469-181.019531s-26.628906-132.667969-74.980469-181.019531zm0 0"/><path d="m439.167969 162.726562c-16.957031-33.238281-42.671875-61.28125-74.355469-81.09375-32.578125-20.371093-70.203125-31.140624-108.8125-31.140624-113.316406 0-205.507812 92.191406-205.507812 205.507812s92.191406 205.507812 205.507812 205.507812 205.507812-92.191406 205.507812-205.507812c0-20.132812-2.90625-40.03125-8.640624-59.140625-1.203126-4.007813-5.421876-6.28125-9.429688-5.078125s-6.28125 5.425781-5.078125 9.433594c5.308594 17.691406 8 36.125 8 54.785156 0 104.964844-85.394531 190.359375-190.359375 190.359375s-190.359375-85.394531-190.359375-190.359375 85.394531-190.359375 190.359375-190.359375c71.9375 0 136.953125 39.839844 169.675781 103.96875 1.898438 3.726563 6.460938 5.207031 10.1875 3.304687 3.726563-1.902343 5.203125-6.464843 3.304688-10.1875zm0 0"/><path d="m384.011719 190.222656c4.695312-6.078125 7.429687-13.425781 7.8125-21.253906.488281-10.105469-2.984375-19.792969-9.78125-27.285156-32.203125-35.492188-78.144531-55.84375-126.042969-55.84375-20.882812 0-37.871094 16.984375-37.871094 37.867187 0 20.882813 16.988282 37.871094 37.871094 37.871094 26.578125 0 52.074219 11.300781 69.953125 31 7.164063 7.894531 17.390625 12.421875 28.054687 12.421875 6.398438 0 12.621094-1.613281 18.140626-4.632812 8.269531 17.265624 12.609374 36.335937 12.609374 55.632812 0 4.183594 3.390626 7.574219 7.574219 7.574219 4.183594 0 7.574219-3.390625 7.574219-7.574219 0-22.910156-5.488281-45.539062-15.894531-65.777344zm-46.839844-7.824218c-20.742187-22.859376-50.328125-35.96875-81.171875-35.96875-12.527344 0-22.722656-10.191407-22.722656-22.722657 0-12.527343 10.195312-22.722656 22.722656-22.722656 43.636719 0 85.488281 18.542969 114.824219 50.875 4.078125 4.496094 6.164062 10.308594 5.867187 16.371094-.292968 6.0625-2.929687 11.648437-7.425781 15.726562-4.1875 3.800781-9.609375 5.894531-15.257813 5.894531-6.402343 0-12.539062-2.714843-16.835937-7.453124zm0 0"/><path d="m208.535156 266.605469c-14.199218 0-25.75 11.550781-25.75 25.75s11.550782 25.75 25.75 25.75c14.199219 0 25.75-11.550781 25.75-25.75.003906-14.199219-11.550781-25.75-25.75-25.75zm0 36.355469c-5.847656 0-10.601562-4.757813-10.601562-10.605469 0-5.847657 4.753906-10.605469 10.601562-10.605469s10.605469 4.757812 10.605469 10.605469c0 5.847656-4.757813 10.605469-10.605469 10.605469zm0 0"/><path d="m268.621094 292.355469c0 4.460937-3.613282 8.078125-8.078125 8.078125-4.460938 0-8.078125-3.617188-8.078125-8.078125 0-4.460938 3.617187-8.078125 8.078125-8.078125 4.464843 0 8.078125 3.617187 8.078125 8.078125zm0 0"/><path d="m213.082031 242.367188c0 4.460937-3.617187 8.078124-8.078125 8.078124-4.464844 0-8.082031-3.617187-8.082031-8.078124 0-4.460938 3.617187-8.078126 8.082031-8.078126 4.460938 0 8.078125 3.617188 8.078125 8.078126zm0 0"/><path d="m185.816406 331.234375c0 4.460937-3.617187 8.078125-8.082031 8.078125-4.460937 0-8.078125-3.617188-8.078125-8.078125s3.617188-8.078125 8.078125-8.078125c4.464844 0 8.082031 3.617188 8.082031 8.078125zm0 0"/><path d="m172.6875 272.664062c0 4.460938-3.617188 8.078126-8.082031 8.078126-4.460938 0-8.078125-3.617188-8.078125-8.078126 0-4.464843 3.617187-8.078124 8.078125-8.078124 4.464843 0 8.082031 3.613281 8.082031 8.078124zm0 0"/><path d="m245.398438 329.214844c0 4.460937-3.617188 8.078125-8.082032 8.078125-4.460937 0-8.078125-3.617188-8.078125-8.078125 0-4.460938 3.617188-8.078125 8.078125-8.078125 4.464844 0 8.082032 3.617187 8.082032 8.078125zm0 0"/><path d="m314.453125 273.679688c-.726563-4.121094-4.652344-6.871094-8.773437-6.144532l-12.753907 2.25c-1.332031-4.980468-3.097656-9.789062-5.246093-14.378906l11.226562-6.480469c3.621094-2.089843 4.863281-6.722656 2.773438-10.347656-2.09375-3.621094-6.726563-4.863281-10.347657-2.769531l-11.246093 6.492187c-2.9375-4.1875-6.230469-8.105469-9.835938-11.710937l8.351562-9.953125c2.6875-3.203125 2.269532-7.980469-.933593-10.671875-3.203125-2.6875-7.980469-2.269532-10.671875.933594l-8.347656 9.949218c-4.160157-2.925781-8.585938-5.492187-13.234376-7.667968l4.433594-12.183594c1.429688-3.929688-.597656-8.273438-4.527344-9.707032-3.933593-1.429687-8.277343.597657-9.707031 4.527344l-4.429687 12.167969c-4.871094-1.308594-9.910156-2.207031-15.074219-2.648437v-12.957032c0-4.183594-3.390625-7.574218-7.574219-7.574218s-7.574218 3.390624-7.574218 7.574218v12.957032c-5.164063.445312-10.203126 1.339843-15.074219 2.648437l-4.429688-12.167969c-1.429687-3.929687-5.777343-5.957031-9.707031-4.527344-3.929688 1.433594-5.957031 5.777344-4.527344 9.707032l4.433594 12.183594c-4.648438 2.175781-9.074219 4.742187-13.234375 7.667968l-8.347656-9.949218c-2.691407-3.203126-7.46875-3.621094-10.671875-.933594-3.207032 2.691406-3.621094 7.46875-.933594 10.671875l8.351562 9.953125c-3.605468 3.605468-6.898437 7.523437-9.835937 11.710937l-11.246094-6.492187c-3.625-2.09375-8.253906-.851563-10.347656 2.769531-2.089844 3.625-.851563 8.257813 2.773437 10.347656l11.226563 6.480469c-2.152344 4.589844-3.914063 9.398438-5.246094 14.378906l-12.753906-2.25c-4.113281-.722656-8.046875 2.023438-8.773437 6.144532-.726563 4.117187 2.023437 8.046874 6.144531 8.773437l12.757812 2.25c-.21875 2.523437-.339843 5.074219-.339843 7.652344s.121093 5.128906.339843 7.652343l-12.757812 2.25c-4.121094.726563-6.871094 4.652344-6.144531 8.773438.648437 3.675781 3.84375 6.257812 7.449218 6.257812.4375 0 .878906-.035156 1.324219-.113281l12.753906-2.25c1.332031 4.980469 3.09375 9.785157 5.246094 14.375l-11.226563 6.484375c-3.625 2.089844-4.863281 6.722656-2.773437 10.34375 1.40625 2.429688 3.949219 3.789063 6.566406 3.789063 1.285157 0 2.589844-.328125 3.78125-1.015625l11.246094-6.492188c2.9375 4.183594 6.230469 8.105469 9.835937 11.707032l-8.351562 9.957031c-2.6875 3.203125-2.273438 7.980469.933594 10.667969 1.417968 1.191406 3.144531 1.773437 4.863281 1.773437 2.160156 0 4.308594-.917969 5.804687-2.707031l8.347657-9.945313c4.160156 2.921875 8.589843 5.492188 13.238281 7.667969l-4.433594 12.179688c-1.429687 3.929687.59375 8.277343 4.527344 9.710937.855469.308594 1.730469.457031 2.589844.457031 3.09375 0 5.996094-1.910156 7.117187-4.984375l4.429688-12.167969c4.871093 1.308594 9.910156 2.203126 15.074219 2.648438v12.957031c0 4.183594 3.390624 7.574219 7.574218 7.574219s7.574219-3.390625 7.574219-7.574219v-12.957031c5.164063-.445312 10.203125-1.339844 15.074219-2.648438l4.425781 12.167969c1.121094 3.074219 4.027344 4.984375 7.121094 4.984375.859375 0 1.734375-.148437 2.589843-.457031 3.929688-1.433594 5.957032-5.777344 4.527344-9.710937l-4.4375-12.179688c4.648438-2.175781 9.078125-4.746094 13.238282-7.667969l8.347656 9.945313c1.5 1.785156 3.644531 2.707031 5.804687 2.707031 1.71875 0 3.445313-.582031 4.863281-1.773437 3.207032-2.6875 3.625-7.464844.9375-10.667969l-8.355468-9.957031c3.609375-3.601563 6.898437-7.523438 9.835937-11.707032l11.246094 6.492188c1.195313.6875 2.496094 1.015625 3.78125 1.015625 2.617187 0 5.164063-1.359375 6.566406-3.789063 2.09375-3.621094.851563-8.253906-2.773437-10.34375l-11.226563-6.484375c2.152344-4.589843 3.917969-9.394531 5.25-14.375l12.75 2.25c.445313.078125.886719.113281 1.324219.113281 3.605469 0 6.804688-2.585937 7.449219-6.257812.726562-4.121094-2.023438-8.046875-6.140625-8.773438l-12.761719-2.25c.222656-2.523437.339844-5.074218.339844-7.652343s-.117188-5.128907-.339844-7.652344l12.761719-2.25c4.121094-.726563 6.871094-4.65625 6.144531-8.773437zm-81.167969 86.507812c-.015625.007812-.035156.011719-.054687.019531-.003907 0-.011719.003907-.019531.007813-7.703126 2.808594-16.011719 4.347656-24.675782 4.347656-8.664062 0-16.972656-1.539062-24.675781-4.347656-.007813-.003906-.011719-.003906-.019531-.007813-.019532-.007812-.035156-.011719-.054688-.019531-27.660156-10.121094-47.457031-36.707031-47.457031-67.832031 0-31.117188 19.789063-57.703125 47.441406-67.828125.023438-.007813.046875-.015625.070313-.023438.007812 0 .011718-.007812.019531-.007812 7.703125-2.8125 16.011719-4.347656 24.675781-4.347656 8.664063 0 16.972656 1.535156 24.675782 4.347656.007812 0 .011718.003906.019531.007812.023437.007813.046875.015625.070312.023438 27.652344 10.125 47.4375 36.710937 47.4375 67.828125.003907 31.125-19.792969 57.710937-47.453125 67.832031zm0 0"/><path d="m306.492188 385.765625c-4.183594 0-7.574219 3.390625-7.574219 7.574219 0 10.304687-8.378907 18.683594-18.679688 18.683594-4.183593 0-7.574219 3.390624-7.574219 7.574218s3.390626 7.574219 7.574219 7.574219c18.652344 0 33.828125-15.175781 33.828125-33.832031 0-4.183594-3.390625-7.574219-7.574218-7.574219zm0 0"/><path d="m320.632812 235.296875c10.300782 0 18.679688 8.382813 18.679688 18.683594 0 4.183593 3.390625 7.574219 7.574219 7.574219 4.183593 0 7.574219-3.390626 7.574219-7.574219 0-18.65625-15.175782-33.832031-33.828126-33.832031-4.183593 0-7.574218 3.390624-7.574218 7.574218s3.390625 7.574219 7.574218 7.574219zm0 0"/><path d="m128.757812 168.648438c4.183594 0 7.574219-3.390626 7.574219-7.574219 0-10.304688 8.378907-18.683594 18.679688-18.683594 4.183593 0 7.574219-3.390625 7.574219-7.574219s-3.390626-7.574218-7.574219-7.574218c-18.652344 0-33.828125 15.175781-33.828125 33.832031 0 4.183593 3.390625 7.574219 7.574218 7.574219zm0 0"/><path d="m399.90625 316.59375c0-18.097656-14.722656-32.820312-32.820312-32.820312-18.101563 0-32.820313 14.722656-32.820313 32.820312 0 18.09375 14.722656 32.820312 32.820313 32.820312 18.09375 0 32.820312-14.726562 32.820312-32.820312zm-50.496094 0c0-9.746094 7.929688-17.675781 17.675782-17.675781 9.742187 0 17.671874 7.929687 17.671874 17.675781 0 9.742188-7.929687 17.671875-17.671874 17.671875-9.746094 0-17.675782-7.929687-17.675782-17.671875zm0 0"/><path d="m428.6875 208.535156c0 5.578125-4.523438 10.101563-10.097656 10.101563-5.578125 0-10.101563-4.523438-10.101563-10.101563s4.523438-10.097656 10.101563-10.097656c5.574218 0 10.097656 4.519531 10.097656 10.097656zm0 0"/><path d="m435.757812 280.238281c0 5.578125-4.523437 10.097657-10.101562 10.097657s-10.097656-4.519532-10.097656-10.097657 4.519531-10.101562 10.097656-10.101562 10.101562 4.523437 10.101562 10.101562zm0 0"/><path d="m200.457031 155.015625c0 5.574219-4.519531 10.097656-10.097656 10.097656s-10.097656-4.523437-10.097656-10.097656c0-5.578125 4.519531-10.101563 10.097656-10.101563s10.097656 4.523438 10.097656 10.101563zm0 0"/><path d="m106.539062 208.535156c0 5.578125-4.519531 10.101563-10.097656 10.101563s-10.097656-4.523438-10.097656-10.101563 4.519531-10.097656 10.097656-10.097656 10.097656 4.519531 10.097656 10.097656zm0 0"/><path d="m357.996094 380.214844c0 5.574218-4.523438 10.097656-10.097656 10.097656-5.578126 0-10.101563-4.523438-10.101563-10.097656 0-5.578125 4.523437-10.101563 10.101563-10.101563 5.574218 0 10.097656 4.523438 10.097656 10.101563zm0 0"/></svg>