<svg height="512pt" viewBox="-63 0 512 512" width="512pt" xmlns="http://www.w3.org/2000/svg"><path d="m123.238281 273.707031c-3.433593-2.386719-8.15625-1.53125-10.539062 1.902344l-25.457031 36.664063c-1.605469 2.316406-1.796876 5.332031-.488282 7.828124 1.304688 2.5 3.890625 4.0625 6.710938 4.0625h199.847656c2.816406 0 5.398438-1.5625 6.707031-4.054687 1.308594-2.496094 1.125-5.511719-.480469-7.828125l-75.457031-109.0625c-1.414062-2.046875-3.742187-3.265625-6.226562-3.265625h-48.933594c-2.488281 0-4.816406 1.21875-6.230469 3.265625l-30.152344 43.582031c-2.382812 3.441407-1.519531 8.160157 1.917969 10.539063 3.441407 2.378906 8.15625 1.519531 10.539063-1.917969l27.894531-40.320313h40.996094l64.976562 93.914063h-170.921875l17.199219-24.769531c2.386719-3.433594 1.535156-8.152344-1.902344-10.539063zm0 0"/><path d="m379.203125 496.851562h-27.824219l-33.230468-102.023437c3.925781-.28125 7.027343-3.546875 7.027343-7.546875v-32.214844c6.726563-2.222656 12.449219-6.964844 15.855469-13.464844 4.8125-9.175781 4.136719-20.171874-1.757812-28.691406l-91.074219-131.636718c-3.816407-5.511719-5.832031-11.96875-5.832031-18.675782v-107.054687h2.527343c9.746094 0 17.671875-7.929688 17.671875-17.675781v-20.195313c0-9.742187-7.929687-17.671875-17.675781-17.671875h-103.003906c-9.746094 0-17.671875 7.929688-17.671875 17.671875v20.199219c0 9.742187 7.925781 17.671875 17.671875 17.671875h2.523437v13.253906c0 4.183594 3.390625 7.574219 7.574219 7.574219s7.574219-3.390625 7.574219-7.574219v-13.253906h67.660156v107.058593c0 9.796876 2.949219 19.234376 8.523438 27.289063l91.074218 131.636719c2.71875 3.933594 3.019532 8.808594.796875 13.042968-2.21875 4.234376-6.398437 6.761719-11.179687 6.761719h-246.089844c-4.78125 0-8.960938-2.527343-11.179688-6.761719-2.21875-4.234374-1.921874-9.109374.800782-13.042968l91.074218-131.636719c5.574219-8.054687 8.519532-17.492187 8.519532-27.289063v-58.585937c0-4.183594-3.390625-7.574219-7.574219-7.574219s-7.574219 3.390625-7.574219 7.574219v58.585937c0 6.703126-2.015625 13.160157-5.828125 18.671876l-91.074219 131.636718c-5.894531 8.519532-6.570312 19.515625-1.757812 28.691406 3.402344 6.5 9.128906 11.242188 15.855469 13.464844v32.214844c0 4 3.097656 7.265625 7.027343 7.546875l-33.230468 102.023437h-27.828125c-4.183594 0-7.574219 3.390626-7.574219 7.574219 0 4.183594 3.390625 7.574219 7.574219 7.574219h338.304687.019532 33.304687c4.183594 0 7.574219-3.390625 7.574219-7.574219 0-4.183593-3.390625-7.574219-7.574219-7.574219zm-227.21875-456.457031h-10.097656c-1.394531 0-2.527344-1.132812-2.527344-2.527343v-20.195313c0-1.390625 1.132813-2.523437 2.527344-2.523437h103.003906c1.394531 0 2.527344 1.132812 2.527344 2.523437v20.199219c0 1.390625-1.132813 2.523437-2.527344 2.523437zm38.964844 339.3125c-4.183594 0-7.574219 3.390625-7.574219 7.574219s3.390625 7.574219 7.574219 7.574219h72.902343l33.21875 101.996093h-58.457031c1.351563-9.609374 2.03125-19.460937.644531-28.875-6.628906-45.027343-41.675781-58.921874-43.164062-59.492187-1.742188-.667969-3.667969-.667969-5.410156 0-1.488282.570313-36.535156 14.464844-43.164063 59.492187-1.382812 9.417969-.707031 19.269532.644531 28.875h-58.457031l33.21875-101.996093h32.679688c4.179687 0 7.574219-3.390625 7.574219-7.574219s-3.394532-7.574219-7.574219-7.574219h-78.855469v-23.226562h233.277344v23.226562zm-139.617188 117.144531 33.21875-101.996093h22.445313l-33.21875 101.996093zm133.359375 0c-.226562-2.492187-.199218-4.445312.054688-6.183593 1.21875-8.261719 5.683594-12.78125 8.636718-14.925781 2.984376 2.160156 7.433594 6.679687 8.648438 14.925781.257812 1.738281.28125 3.691406.058594 6.183593zm32.582032 0c.183593-2.785156.152343-5.601562-.257813-8.390624-3.15625-21.445313-20.195313-28.195313-20.921875-28.472657-1.742188-.667969-3.667969-.667969-5.410156 0-.722656.277344-17.765625 7.027344-20.921875 28.472657-.410157 2.789062-.441407 5.605468-.257813 8.390624h-6.027344c-1.738281-11.613281-2.007812-19.605468-.96875-26.667968 4.375-29.714844 23.65625-42.472656 30.878907-46.269532 7.257812 3.8125 26.515625 16.574219 30.886719 46.269532 1.039062 7.0625.769531 15.054687-.96875 26.667968zm95.730468 0-33.222656-101.996093h22.445312l33.21875 101.996093zm0 0"/><path d="m229.742188 285.285156c0 5.578125-4.519532 10.101563-10.097657 10.101563s-10.097656-4.523438-10.097656-10.101563 4.519531-10.097656 10.097656-10.097656 10.097657 4.519531 10.097657 10.097656zm0 0"/><path d="m208.535156 238.832031c0 5.578125-4.519531 10.097657-10.097656 10.097657s-10.097656-4.519532-10.097656-10.097657 4.519531-10.097656 10.097656-10.097656 10.097656 4.519531 10.097656 10.097656zm0 0"/><path d="m174.199219 269.128906c0 2.789063-2.257813 5.046875-5.046875 5.046875-2.789063 0-5.050782-2.257812-5.050782-5.046875 0-2.789062 2.261719-5.050781 5.050782-5.050781 2.789062 0 5.046875 2.261719 5.046875 5.050781zm0 0"/></svg>