<svg height="512pt" viewBox="0 -14 512 512" width="512pt" xmlns="http://www.w3.org/2000/svg"><path d="m496.347656 288.820312h-22.21875c-7.769531 0-14.214844 5.695313-15.429687 13.128907h-65.609375c-4.183594 0-7.574219 3.390625-7.574219 7.574219 0 4.183593 3.390625 7.574218 7.574219 7.574218h65.386718v138.351563h-160.0625c-1.394531 0-2.523437-1.132813-2.523437-2.527344v-133.300781c0-1.390625 1.128906-2.523438 2.523437-2.523438h59.171876c4.183593 0 7.574218-3.394531 7.574218-7.574218 0-4.183594-3.390625-7.574219-7.574218-7.574219h-59.171876c-7.03125 0-13.101562 4.136719-15.941406 10.097656h-60.902344l47.996094-47.996094c8.875 8.167969 20.316406 12.652344 32.449219 12.652344h176.15625c9.742187 0 17.671875-7.929687 17.671875-17.675781v-11.105469c0-8.34375-5.820312-15.335937-13.605469-17.183594l-13.199219-16.800781c-3.789062-4.820312-6.148437-10.589844-6.816406-16.6875l-10.074218-91.566406c-6.628907-60.25-57.335938-105.683594-117.949219-105.683594h-12.136719c-4.183594 0-7.574219 3.390625-7.574219 7.574219 0 4.183593 3.390625 7.574219 7.574219 7.574219h12.136719c52.875 0 97.109375 39.632812 102.890625 92.191406l10.074218 91.566406c.980469 8.910156 4.425782 17.34375 9.960938 24.394531l5.460938 6.949219h-145.421876c-8.765624 0-17.007812-3.414062-23.203124-9.613281l-35.921876-35.917969c-9.058593-9.0625-21.105468-14.050781-33.917968-14.050781h-93.722656c-4.183594 0-7.574219 3.390625-7.574219 7.574219 0 4.183593 3.390625 7.574218 7.574219 7.574218h93.722656c8.765625 0 17.007812 3.414063 23.207031 9.613282l35.917969 35.917968c9.0625 9.058594 21.109375 14.050782 33.917968 14.050782h161 .011719c1.390625.003906 2.519531 1.132812 2.519531 2.523437v11.109375c0 1.390625-1.132812 2.523438-2.523437 2.523438h-176.152344c-8.765625 0-17.007812-3.414063-23.207031-9.613282l-3.917969-3.914062c0-.003906-.003906-.003906-.003906-.007813l-24.277344-24.277343c-.003906-.003907-.011719-.007813-.015625-.011719l-7.707031-7.707031c-9.058594-9.058594-21.042969-14.050782-33.75-14.050782h-175.3125c-1.390625 0-2.523437-1.132812-2.523437-2.523437v-11.109375c0-1.390625 1.132812-2.523438 2.523437-2.523438h2.011719.003906.011719 59.15625c4.183593 0 7.574219-3.390625 7.574219-7.574218 0-4.183594-3.390626-7.574219-7.574219-7.574219h-43.578125l6.066406-7.722657c5.066406-6.449218 8.414062-14.140624 9.679688-22.242187l5.925781-38c7.917969-50.734375 50.929687-87.554687 102.277343-87.554687h111.449219c4.183594 0 7.574219-3.390626 7.574219-7.574219 0-4.183594-3.390625-7.574219-7.574219-7.574219h-111.449219c-28.28125 0-55.6875 10.128906-77.167968 28.519531-21.484375 18.390625-35.714844 43.90625-40.074219 71.847657l-5.929687 38c-.863282 5.542968-3.15625 10.804687-6.621094 15.21875l-13.488282 17.167968c-8.9375.875-15.945312 8.425782-15.945312 17.585938v11.105468c0 9.746094 7.929688 17.675782 17.675781 17.675782h124.71875v94.925781h-19.695312c-9.574219 0-17.375 7.65625-17.644531 17.167969h-35.5c-9.328126 0-18.402344 1.871094-26.96875 5.5625l-34.6875 14.941406c-14.613282 6.292969-24.054688 20.644531-24.054688 36.554688 0 15.910156 9.441406 30.257812 24.054688 36.550781l34.6875 14.945312c8.566406 3.6875 17.640624 5.558594 26.96875 5.558594h35.546874c.773438 9.039063 8.363282 16.160156 17.597657 16.160156h143.164062c2.613281 6.5 8.972657 11.105469 16.394531 11.105469h160.285157c1.214843 7.433594 7.660156 13.128906 15.429687 13.128906h22.21875c8.628906 0 15.652344-7.023437 15.652344-15.652344v-163.597656c0-8.628906-7.023438-15.652344-15.652344-15.652344zm-237.527344-35.445312-50.789062 50.789062v-27.132812l37.222656-37.222656zm-26.640624-26.640625 2.363281 2.363281-26.511719 26.511719v-38.488281h1.109375c8.660156 0 16.839844 3.414062 23.039063 9.613281zm-58.484376-9.613281h19.1875v94.925781h-19.1875zm-108.960937 206.734375-34.6875-14.941407c-9.050781-3.898437-14.898437-12.785156-14.898437-22.640624 0-9.855469 5.847656-18.742188 14.898437-22.640626l34.6875-14.945312c6.664063-2.871094 13.71875-4.324219 20.976563-4.324219h35.472656v83.820313h-35.472656c-7.257813 0-14.3125-1.457032-20.976563-4.328125zm71.597656 17.960937v-112.09375c0-1.394531 1.132813-2.527344 2.523438-2.527344h141.886719v117.144532h-141.886719c-1.390625 0-2.523438-1.132813-2.523438-2.523438zm360.519531 26.253906c0 .28125-.226562.503907-.503906.503907h-22.21875c-.277344 0-.503906-.222657-.503906-.503907v-163.597656c0-.277344.226562-.503906.503906-.503906h22.21875c.277344 0 .503906.226562.503906.503906zm0 0"/></svg>