<svg height="512pt" viewBox="0 -31 512.001 512" width="512pt" xmlns="http://www.w3.org/2000/svg"><path d="m504.425781 125.726562c4.183594 0 7.574219-3.390624 7.574219-7.570312v-91.394531c0-4.183594-3.390625-7.574219-7.574219-7.574219h-23.730469v-11.613281c0-4.183594-3.390624-7.574219-7.574218-7.574219h-156.671875c-18.667969 0-36.726563 7.785156-49.554688 21.359375l-10.894531 11.539063-10.894531-11.539063c-12.828125-13.574219-30.890625-21.359375-49.554688-21.359375h-87.558593c-4.183594 0-7.574219 3.390625-7.574219 7.574219 0 4.183593 3.390625 7.574219 7.574219 7.574219h87.558593c14.519531 0 28.566407 6.054687 38.542969 16.609374l14.332031 15.183594v57.074219h-83.3125c-4.183593 0-7.574219 3.390625-7.574219 7.574219v34.335937c0 3.664063 2.601563 6.71875 6.058594 7.421875v46.210938c0 18.042968 9.960938 34.382812 26 42.644531l28.773438 14.820313c.816406.484374 1.648437.949218 2.5 1.386718l3.769531 1.945313c3.488281 2.324219 5.605469 6.222656 5.605469 10.484375v11.726562c0 4.746094-2.617188 9.046875-6.839844 11.21875l-1.042969.539063c-8.433593-3.609375-17.628906-5.503907-26.8125-5.503907h-149.097656v-273.671874h26.445313c4.183593 0 7.574218-3.390626 7.574218-7.574219 0-4.183594-3.390625-7.574219-7.574218-7.574219h-34.019532c-4.183594 0-7.574218 3.390625-7.574218 7.574219v11.613281h-23.730469c-4.183594 0-7.574219 3.390625-7.574219 7.574219v91.394531c0 4.179688 3.390625 7.570312 7.574219 7.570312 4.183593 0 7.574219-3.390624 7.574219-7.570312v-83.820312h16.15625v298.414062c0 4.183594 3.390624 7.574219 7.574218 7.574219h126.648438c-1.261719 4.320312-1.929688 8.863281-1.929688 13.519531v2.636719h-148.449218v-202.980469c0-4.183594-3.390626-7.574219-7.574219-7.574219-4.183594 0-7.574219 3.390625-7.574219 7.574219v210.554688c0 4.183593 3.390625 7.574218 7.574219 7.574218h156.023437v28.429688c-3.457031.699218-6.058594 3.757812-6.058594 7.421875v34.335937c0 4.179688 3.390626 7.570313 7.574219 7.570313h181.773438c4.183593 0 7.574219-3.390625 7.574219-7.570313v-34.335937c0-3.664063-2.601563-6.722657-6.058594-7.421875v-28.429688h156.023437c4.183594 0 7.574219-3.390625 7.574219-7.574218v-210.554688c0-4.183594-3.390625-7.574219-7.574219-7.574219-4.183593 0-7.574219 3.390625-7.574219 7.574219v202.980469h-148.449218v-2.636719c0-4.65625-.667969-9.199219-1.929688-13.519531h126.648438c4.183594 0 7.574218-3.390625 7.574218-7.574219v-298.414062h16.15625v83.820312c0 4.179688 3.390626 7.570312 7.574219 7.570312zm-240.851562-78.785156 14.332031-15.179687c9.976562-10.558594 24.027344-16.613281 38.542969-16.613281h149.097656v273.675781h-149.097656c-9.183594 0-18.378907 1.890625-26.8125 5.5l-1.042969-.535157c-4.222656-2.175781-6.839844-6.472656-6.839844-11.222656v-11.722656c0-4.265625 2.117188-8.160156 5.605469-10.488281l3.769531-1.941407c.851563-.441406 1.683594-.90625 2.5-1.386718l28.773438-14.824219c16.039062-8.261719 26-24.601563 26-42.640625v-46.214844c3.457031-.699218 6.058594-3.757812 6.058594-7.421875v-34.332031c0-4.183594-3.390626-7.574219-7.574219-7.574219h-83.3125zm-19.355469 206.457032-12.007812-6.1875c-.609376-.371094-1.226563-.730469-1.867188-1.058594l-4.6875-2.414063c-10.308594-6.261719-16.617188-17.378906-16.617188-29.574219v-4.269531h93.917969v4.269531c0 12.195313-6.308593 23.3125-16.613281 29.574219l-4.6875 2.414063c-.640625.332031-1.261719.6875-1.867188 1.058594l-12.007812 6.1875c-4.277344 2.203124-8.222656 4.886718-11.78125 8.011718-3.5625-3.125-7.503906-5.808594-11.78125-8.011718zm95.09375-134.234376v18.679688h-166.625v-18.679688zm-160.566406 80.394532v-46.058594h154.507812v46.058594c0 12.125-6.585937 23.113281-17.214844 28.855468 1.351563-4.546874 2.066407-9.335937 2.066407-14.25v-11.84375c0-4.183593-3.390625-7.574218-7.574219-7.574218h-109.0625c-4.183594 0-7.574219 3.390625-7.574219 7.574218v11.84375c0 4.914063.714844 9.703126 2.066407 14.25-10.628907-5.742187-17.214844-16.730468-17.214844-28.855468zm51.597656 107.695312c9.285156-4.785156 15.050781-14.246094 15.050781-24.6875v-10.28125c1.738281 1.46875 3.367188 3.066406 4.859375 4.804688 1.4375 1.675781 3.535156 2.644531 5.746094 2.644531s4.308594-.96875 5.746094-2.644531c1.492187-1.738282 3.121094-3.335938 4.859375-4.804688v10.28125c0 10.441406 5.765625 19.902344 15.050781 24.6875l33.808594 17.414063c5.351562 2.757812 9.707031 6.835937 12.773437 11.714843.121094.222657.253907.4375.394531.644532 2.972657 4.980468 4.621094 10.757812 4.621094 16.816406v46.0625h-15.148437v-3.769531c0-18.71875-10.335938-35.671875-26.976563-44.246094l-16.40625-8.453125c-4.992187-2.570312-9.355468-6.011719-12.972656-10.226562-1.441406-1.675782-3.539062-2.640626-5.75-2.640626s-4.308594.964844-5.746094 2.640626c-3.617187 4.214843-7.984375 7.65625-12.972656 10.226562l-16.410156 8.453125c-16.640625 8.574219-26.976563 25.527344-26.976563 44.246094v3.769531h-15.148437v-46.0625c0-6.058594 1.652344-11.835938 4.625-16.816406.140625-.207032.273437-.421875.394531-.644532 3.066406-4.878906 7.417969-8.957031 12.773437-11.714843zm72.617188 92.652344h-93.917969v-3.765625c0-13.023437 7.191406-24.816406 18.765625-30.78125l16.410156-8.453125c4.277344-2.203125 8.21875-4.886719 11.78125-8.011719 3.5625 3.125 7.503906 5.808594 11.78125 8.011719l16.410156 8.453125c11.574219 5.964844 18.765625 17.757813 18.765625 30.78125v3.765625zm-256.507813-74.730469v-21.207031h149.097656c2.378907 0 4.753907.183594 7.113281.503906l-13.066406 6.730469c-6.640625 3.421875-12.238281 8.230469-16.519531 13.972656zm126.234375 109.066407v-18.683594h166.625v18.683594zm166.234375-109.066407c-4.28125-5.742187-9.875-10.550781-16.519531-13.972656l-13.0625-6.730469c2.355468-.320312 4.730468-.503906 7.109375-.503906h149.097656v21.207031zm0 0"/><path d="m58.570312 61.097656v20.195313c0 4.183593 3.394532 7.574219 7.574219 7.574219 4.183594 0 7.574219-3.390626 7.574219-7.574219v-12.621094h13.128906v12.621094c0 4.183593 3.390625 7.574219 7.574219 7.574219s7.574219-3.390626 7.574219-7.574219v-20.195313c0-4.183594-3.390625-7.574218-7.574219-7.574218h-28.277344c-4.179687 0-7.574219 3.390624-7.574219 7.574218zm0 0"/><path d="m58.570312 248.929688c0 4.183593 3.394532 7.574218 7.574219 7.574218h28.277344c4.183594 0 7.574219-3.390625 7.574219-7.574218v-20.195313c0-4.183594-3.390625-7.574219-7.574219-7.574219s-7.574219 3.390625-7.574219 7.574219v12.625h-13.128906v-12.625c0-4.183594-3.390625-7.574219-7.574219-7.574219-4.179687 0-7.574219 3.390625-7.574219 7.574219zm0 0"/><path d="m66.144531 146.429688c4.183594 0 7.574219-3.390626 7.574219-7.574219v-12.621094h20.703125c4.183594 0 7.574219-3.390625 7.574219-7.574219s-3.390625-7.574218-7.574219-7.574218h-28.277344c-4.179687 0-7.574219 3.390624-7.574219 7.574218v20.195313c0 4.183593 3.394532 7.574219 7.574219 7.574219zm0 0"/><path d="m98.964844 138.855469c0 4.183593 3.390625 7.574219 7.574218 7.574219h28.277344c4.183594 0 7.574219-3.390626 7.574219-7.574219v-20.195313c0-4.183594-3.390625-7.574218-7.574219-7.574218s-7.574218 3.390624-7.574218 7.574218v12.621094h-20.703126c-4.183593 0-7.574218 3.390625-7.574218 7.574219zm0 0"/><path d="m141.886719 63.621094h-21.207031c-4.183594 0-7.574219 3.390625-7.574219 7.574218 0 4.183594 3.390625 7.574219 7.574219 7.574219h21.207031c4.183593 0 7.574219-3.390625 7.574219-7.574219 0-4.183593-3.390626-7.574218-7.574219-7.574218zm0 0"/><path d="m141.886719 186.824219h-21.207031c-4.183594 0-7.574219 3.390625-7.574219 7.574219 0 4.183593 3.390625 7.574218 7.574219 7.574218h21.207031c4.183593 0 7.574219-3.390625 7.574219-7.574218 0-4.183594-3.390626-7.574219-7.574219-7.574219zm0 0"/><path d="m141.886719 233.277344h-21.207031c-4.183594 0-7.574219 3.390625-7.574219 7.574218 0 4.183594 3.390625 7.574219 7.574219 7.574219h21.207031c4.183593 0 7.574219-3.390625 7.574219-7.574219 0-4.183593-3.390626-7.574218-7.574219-7.574218zm0 0"/><path d="m166.121094 50.492188c-4.183594 0-7.574219 3.390624-7.574219 7.574218v13.128906c0 4.183594 3.390625 7.574219 7.574219 7.574219h21.207031c4.183594 0 7.574219-3.390625 7.574219-7.574219 0-4.183593-3.390625-7.574218-7.574219-7.574218h-13.632813v-5.554688c0-4.183594-3.390624-7.574218-7.574218-7.574218zm0 0"/><path d="m58.570312 194.398438c0 4.183593 3.394532 7.574218 7.574219 7.574218h21.207031c4.183594 0 7.574219-3.390625 7.574219-7.574218 0-4.183594-3.390625-7.574219-7.574219-7.574219h-13.632812v-5.554688c0-4.183593-3.390625-7.574219-7.574219-7.574219-4.179687 0-7.574219 3.390626-7.574219 7.574219zm0 0"/><path d="m232.773438 78.769531c4.183593 0 7.574218-3.390625 7.574218-7.574219 0-4.183593-3.390625-7.574218-7.574218-7.574218h-21.207032c-4.183594 0-7.574218 3.390625-7.574218 7.574218 0 4.183594 3.390624 7.574219 7.574218 7.574219zm0 0"/><path d="m417.578125 88.867188c4.183594 0 7.574219-3.390626 7.574219-7.574219v-12.621094h13.128906v12.621094c0 4.183593 3.390625 7.574219 7.574219 7.574219 4.179687 0 7.574219-3.390626 7.574219-7.574219v-20.195313c0-4.183594-3.394532-7.574218-7.574219-7.574218h-28.277344c-4.183594 0-7.574219 3.390624-7.574219 7.574218v20.195313c0 4.183593 3.390625 7.574219 7.574219 7.574219zm0 0"/><path d="m445.855469 221.160156c-4.183594 0-7.574219 3.390625-7.574219 7.574219v12.621094h-13.128906v-12.621094c0-4.183594-3.390625-7.574219-7.574219-7.574219s-7.574219 3.390625-7.574219 7.574219v20.195313c0 4.183593 3.390625 7.574218 7.574219 7.574218h28.277344c4.179687 0 7.574219-3.390625 7.574219-7.574218v-20.195313c0-4.183594-3.394532-7.574219-7.574219-7.574219zm0 0"/><path d="m417.578125 126.234375h20.703125v12.621094c0 4.183593 3.390625 7.574219 7.574219 7.574219 4.179687 0 7.574219-3.390626 7.574219-7.574219v-20.195313c0-4.183594-3.394532-7.574218-7.574219-7.574218h-28.277344c-4.183594 0-7.574219 3.390624-7.574219 7.574218 0 4.179688 3.390625 7.574219 7.574219 7.574219zm0 0"/><path d="m384.757812 118.660156c0-4.183594-3.390624-7.574218-7.574218-7.574218s-7.574219 3.390624-7.574219 7.574218v20.195313c0 4.183593 3.390625 7.574219 7.574219 7.574219h28.277344c4.179687 0 7.570312-3.390626 7.570312-7.574219 0-4.183594-3.390625-7.574219-7.570312-7.574219h-20.703126zm0 0"/><path d="m370.113281 78.769531h21.207031c4.183594 0 7.574219-3.390625 7.574219-7.574219 0-4.183593-3.390625-7.574218-7.574219-7.574218h-21.207031c-4.183593 0-7.574219 3.390625-7.574219 7.574218 0 4.183594 3.390626 7.574219 7.574219 7.574219zm0 0"/><path d="m370.113281 201.972656h21.207031c4.183594 0 7.574219-3.390625 7.574219-7.574218 0-4.183594-3.390625-7.574219-7.574219-7.574219h-21.207031c-4.183593 0-7.574219 3.390625-7.574219 7.574219 0 4.183593 3.390626 7.574218 7.574219 7.574218zm0 0"/><path d="m370.113281 248.425781h21.207031c4.183594 0 7.574219-3.390625 7.574219-7.574219 0-4.183593-3.390625-7.574218-7.574219-7.574218h-21.207031c-4.183593 0-7.574219 3.390625-7.574219 7.574218 0 4.183594 3.390626 7.574219 7.574219 7.574219zm0 0"/><path d="m353.453125 71.195312v-13.128906c0-4.183594-3.390625-7.574218-7.574219-7.574218s-7.574218 3.390624-7.574218 7.574218v5.554688h-13.632813c-4.183594 0-7.574219 3.390625-7.574219 7.574218 0 4.183594 3.390625 7.574219 7.574219 7.574219h21.207031c4.183594 0 7.574219-3.390625 7.574219-7.574219zm0 0"/><path d="m445.855469 173.695312c-4.183594 0-7.574219 3.390626-7.574219 7.574219v5.554688h-13.632812c-4.183594 0-7.574219 3.390625-7.574219 7.574219 0 4.183593 3.390625 7.574218 7.574219 7.574218h21.207031c4.179687 0 7.574219-3.390625 7.574219-7.574218v-13.128907c0-4.183593-3.394532-7.574219-7.574219-7.574219zm0 0"/><path d="m300.433594 63.621094h-21.207032c-4.183593 0-7.574218 3.390625-7.574218 7.574218 0 4.183594 3.390625 7.574219 7.574218 7.574219h21.207032c4.183594 0 7.574218-3.390625 7.574218-7.574219 0-4.183593-3.390624-7.574218-7.574218-7.574218zm0 0"/><path d="m256 318.105469c4.183594 0 7.574219-3.390625 7.574219-7.574219v-10.097656c0-4.183594-3.390625-7.574219-7.574219-7.574219s-7.574219 3.390625-7.574219 7.574219v10.101562c0 4.179688 3.390625 7.570313 7.574219 7.570313zm0 0"/></svg>