<svg height="512pt" viewBox="-53 0 512 512.001" width="512pt" xmlns="http://www.w3.org/2000/svg"><path d="m399.402344 63.621094c4.179687 0 7.570312-3.390625 7.570312-7.574219v-48.472656c0-4.183594-3.390625-7.574219-7.570312-7.574219h-337.296875c-34.242188 0-62.105469 27.859375-62.105469 62.105469v276.703125c0 4.183594 3.390625 7.574218 7.574219 7.574218 4.183593 0 7.574219-3.390624 7.574219-7.574218v-276.703125c0-23.3125 17.082031-42.703125 39.386718-46.335938v372.496094c-15.671875 1.914063-29.546875 9.683594-39.386718 21.050781v-35.164062c0-4.179688-3.390626-7.574219-7.574219-7.574219-4.183594 0-7.574219 3.394531-7.574219 7.574219v75.742187c0 34.246094 27.863281 62.105469 62.109375 62.105469h337.292969c4.183594 0 7.574218-3.390625 7.574218-7.574219v-30.296875c0-4.183594-3.390624-7.574218-7.574218-7.574218h-12.625v-33.324219h12.625c4.179687 0 7.570312-3.390625 7.570312-7.574219v-334.261719c0-4.183593-3.390625-7.574219-7.570312-7.574219-4.183594 0-7.574219 3.390626-7.574219 7.574219v296.390625h-322.148437v-372.636718h322.148437v40.898437c0 4.183594 3.390625 7.574219 7.574219 7.574219zm-7.574219 354.460937h-263.070313c-4.183593 0-7.574218 3.390625-7.574218 7.574219s3.390625 7.574219 7.574218 7.574219h242.871094v33.324219h-309.523437c-9.1875 0-16.660157-7.472657-16.660157-16.660157 0-9.191406 7.472657-16.664062 16.660157-16.664062h31.308593c4.179688 0 7.574219-3.390625 7.574219-7.574219s-3.394531-7.574219-7.574219-7.574219h-31.308593c-17.539063 0-31.808594 14.269531-31.808594 31.8125 0 17.539063 14.269531 31.808594 31.808594 31.808594h329.722656v15.148437h-329.722656c-25.890625 0-46.957031-21.066406-46.957031-46.957031 0-25.894531 21.066406-46.960937 46.957031-46.960937h329.722656zm0 0"/><path d="m251.535156 267.613281c57.632813 0 104.519532-46.886719 104.519532-104.519531s-46.886719-104.523438-104.519532-104.523438h-32.339844c-4.683593 0-9.171874 1.988282-12.320312 5.449219l-5.550781 6.109375c-.199219.21875-.457031.371094-.746094.445313l-10.660156 2.664062c-7.421875 1.855469-12.609375 8.496094-12.609375 16.148438 0 9.179687 7.46875 16.648437 16.648437 16.648437h40.03125c13.851563 0 25.121094-11.269531 25.121094-25.121094v-6.871093c45.746094 3.859375 81.796875 42.320312 81.796875 89.050781 0 49.277344-40.09375 89.371094-89.371094 89.371094h-27.773437v-21.207032h25.75c23.53125 0 45.792969-12.457031 58.101562-32.511718 6.96875-11.355469 10.648438-24.398438 10.648438-37.71875v-26.210938c0-4.179687-3.390625-7.574218-7.574219-7.574218h-189c-4.183594 0-7.574219 3.394531-7.574219 7.574218v26.210938c0 13.324218 3.683594 26.363281 10.652344 37.71875 12.304687 20.054687 34.566406 32.515625 58.097656 32.515625h25.75v21.207031h-19.691406c-14.199219 0-25.75 11.550781-25.75 25.75s11.550781 25.75 25.75 25.75h19.691406v17.167969h-9.875c-18.285156 0-34.726562 10.160156-42.902343 26.515625l-4.992188 9.988281c-1.175781 2.347656-1.050781 5.132813.328125 7.367187 1.382813 2.234376 3.820313 3.59375 6.445313 3.59375h117.144531c2.625 0 5.0625-1.359374 6.441406-3.59375 1.378906-2.234374 1.503906-5.019531.332031-7.367187l-4.992187-9.988281c-8.179688-16.355469-24.621094-26.515625-42.90625-26.515625h-9.875v-17.167969h9.59375c2.109375 0 4.148437.617188 5.886719 1.78125 1.296874.867188 2.761718 1.28125 4.210937 1.28125 2.441406 0 4.835937-1.175781 6.296875-3.359375 2.328125-3.476563 1.398438-8.179687-2.078125-10.507813-4.242187-2.839843-9.191406-4.34375-14.316406-4.34375h-9.59375v-21.207031zm-7.574218-186.699219c0 5.5-4.472657 9.972657-9.972657 9.972657h-40.03125c-.828125 0-1.5-.671875-1.5-1.5 0-.6875.46875-1.289063 1.136719-1.453125l10.660156-2.667969c3.199219-.796875 6.0625-2.511719 8.28125-4.949219l5.550782-6.105468c.285156-.3125.6875-.492188 1.109374-.492188h24.765626zm-106.285157 109.90625c-5.503906-8.964843-8.414062-19.269531-8.414062-29.792968v-18.636719h173.855469v18.636719c0 10.523437-2.910157 20.824218-8.414063 29.792968-9.574219 15.601563-26.886719 25.289063-45.1875 25.289063h-66.652344c-18.300781 0-35.617187-9.6875-45.1875-25.289063zm124.8125 162.632813h-92.597656c5.75-10.617187 16.707031-17.167969 28.851563-17.167969h34.894531c12.144531 0 23.101562 6.546875 28.851562 17.167969zm-53.871093-64.632813h-19.695313c-5.84375 0-10.601563-4.757812-10.601563-10.601562 0-5.847656 4.757813-10.605469 10.601563-10.605469h19.695313zm0 0"/><path d="m223.761719 198.4375v-11.613281h11.613281c4.183594 0 7.574219-3.390625 7.574219-7.574219s-3.390625-7.574219-7.574219-7.574219h-11.613281v-11.613281c0-4.179688-3.390625-7.574219-7.570313-7.574219-4.183594 0-7.574218 3.394531-7.574218 7.574219v11.613281h-11.613282c-4.183594 0-7.574218 3.390625-7.574218 7.574219s3.390624 7.574219 7.574218 7.574219h11.613282v11.613281c0 4.183594 3.390624 7.574219 7.574218 7.574219 4.179688 0 7.570313-3.390625 7.570313-7.574219zm0 0"/></svg>