<svg height="512pt" viewBox="0 -73 512 512" width="512pt" xmlns="http://www.w3.org/2000/svg"><path d="m504.425781 311.039062h-22.722656v-283.269531c0-15.3125-12.457031-27.769531-27.769531-27.769531h-228.902344c-4.183594 0-7.574219 3.390625-7.574219 7.574219 0 4.183593 3.390625 7.574219 7.574219 7.574219h228.902344c6.960937 0 12.621094 5.664062 12.621094 12.621093v283.265625h-15.148438v-109.820312c0-4.183594-3.390625-7.574219-7.570312-7.574219-4.183594 0-7.574219 3.390625-7.574219 7.574219v109.820312h-271.402344c-4.183594 0-7.574219 3.394532-7.574219 7.574219 0 4.183594 3.390625 7.574219 7.574219 7.574219h331.992187v25.25h-481.703124v-25.25h113.988281c4.183593 0 7.574219-3.390625 7.574219-7.574219 0-4.179687-3.390626-7.574219-7.574219-7.574219h-53.398438v-252.96875c0-6.960937 5.664063-12.621094 12.625-12.621094h335.273438c6.960937 0 12.625 5.660157 12.625 12.621094v107.550782c0 4.183593 3.390625 7.574218 7.574219 7.574218 4.179687 0 7.570312-3.390625 7.570312-7.574218v-107.550782c0-15.3125-12.457031-27.769531-27.769531-27.769531h-335.273438c-15.3125 0-27.769531 12.457031-27.769531 27.769531v252.96875h-15.148438v-283.265625c0-6.960937 5.660157-12.621093 12.621094-12.621093h131.957032c4.179687 0 7.574218-3.390626 7.574218-7.574219 0-4.183594-3.394531-7.574219-7.574218-7.574219h-131.957032c-15.3125 0-27.769531 12.457031-27.769531 27.769531v283.265625h-22.722656c-4.183594 0-7.574219 3.394532-7.574219 7.574219v40.394531c0 4.183594 3.390625 7.574219 7.574219 7.574219h496.851562c4.183594 0 7.574219-3.390625 7.574219-7.574219v-40.394531c0-4.179687-3.390625-7.570313-7.574219-7.570313zm0 0"/><path d="m139.867188 123.203125c4.183593 0 7.574218-3.390625 7.574218-7.574219s-3.390625-7.574218-7.574218-7.574218h-40.394532c-4.183594 0-7.574218 3.390624-7.574218 7.574218v90.886719c0 4.183594 3.390624 7.574219 7.574218 7.574219h40.390625c4.183594 0 7.574219-3.390625 7.574219-7.574219 0-4.179687-3.390625-7.574219-7.574219-7.574219h-32.820312v-30.292968h22.722656c4.183594 0 7.574219-3.390626 7.574219-7.574219 0-4.183594-3.390625-7.574219-7.574219-7.574219h-22.722656v-30.296875zm0 0"/><path d="m342.847656 143.398438c6.960938 0 12.625 5.664062 12.625 12.625 0 4.183593 3.390625 7.574218 7.574219 7.574218 4.179687 0 7.570313-3.390625 7.570313-7.574218 0-15.3125-12.457032-27.769532-27.769532-27.769532s-27.769531 12.457032-27.769531 27.769532v30.296874c0 15.3125 12.457031 27.769532 27.769531 27.769532s27.769532-12.457032 27.769532-27.769532c0-4.183593-3.390626-7.574218-7.570313-7.574218-4.183594 0-7.574219 3.390625-7.574219 7.574218 0 6.960938-5.664062 12.621094-12.625 12.621094-6.960937 0-12.621094-5.664062-12.621094-12.621094v-30.296874c0-6.960938 5.660157-12.625 12.621094-12.625zm0 0"/><path d="m296.394531 214.089844c4.183594 0 7.574219-3.390625 7.574219-7.574219v-50.492187c0-15.3125-12.457031-27.769532-27.773438-27.769532-7.953124 0-15.128906 3.363282-20.195312 8.738282-5.066406-5.375-12.246094-8.738282-20.195312-8.738282-15.316407 0-27.773438 12.457032-27.773438 27.769532v50.492187c0 4.183594 3.390625 7.574219 7.574219 7.574219 4.183593 0 7.574219-3.390625 7.574219-7.574219v-50.492187c0-6.960938 5.664062-12.621094 12.625-12.621094 6.957031 0 12.621093 5.660156 12.621093 12.621094v20.199218c0 4.179688 3.390625 7.574219 7.574219 7.574219s7.574219-3.394531 7.574219-7.574219v-20.199218c0-6.960938 5.664062-12.621094 12.621093-12.621094 6.960938 0 12.625 5.660156 12.625 12.621094v50.492187c0 4.183594 3.390626 7.574219 7.574219 7.574219zm0 0"/><path d="m190.359375 153.5h-30.296875c-4.183594 0-7.574219 3.390625-7.574219 7.574219 0 4.183593 3.390625 7.574219 7.574219 7.574219h30.296875c4.183594 0 7.574219-3.390626 7.574219-7.574219 0-4.183594-3.390625-7.574219-7.574219-7.574219zm0 0"/><path d="m190.359375 179.753906h-30.296875c-4.183594 0-7.574219 3.390625-7.574219 7.574219s3.390625 7.574219 7.574219 7.574219h30.296875c4.183594 0 7.574219-3.390625 7.574219-7.574219 0-4.179687-3.390625-7.574219-7.574219-7.574219zm0 0"/><path d="m401.925781 106.035156c-10.023437 0-18.179687 8.15625-18.179687 18.179688 0 4.183594 3.390625 7.574218 7.574218 7.574218 4.183594 0 7.574219-3.390624 7.574219-7.574218 0-1.671875 1.359375-3.03125 3.03125-3.03125 1.640625 0 3.027344 1.386718 3.027344 3.03125 0 7.546875-10.921875 20.730468-18.675781 27.675781-2.34375 2.09375-3.152344 5.414063-2.03125 8.347656 1.117187 2.9375 3.933594 4.875 7.074218 4.875h21.207032c4.183594 0 7.574218-3.390625 7.574218-7.574219 0-4.183593-3.390624-7.574218-7.574218-7.574218h-3.84375c5.796875-7.402344 11.417968-16.871094 11.417968-25.75 0-10.023438-8.152343-18.179688-18.175781-18.179688zm0 0"/></svg>