<svg height="512pt" viewBox="0 -21 512 512" width="512pt" xmlns="http://www.w3.org/2000/svg"><path d="m497.222656 416.324219-10.777344-22.75c-4.566406-9.648438-14.417968-15.882813-25.097656-15.882813h-18.523437c-4.183594 0-7.574219 3.390625-7.574219 7.570313 0 4.183593 3.390625 7.574219 7.574219 7.574219h18.523437c4.851563 0 9.332032 2.835937 11.410156 7.222656l7.582032 16.007812h-171.828125c-.734375 0-1.46875.105469-2.175781.316406l-19.132813 5.742188h-18.695313l6.097657-11.671875c5.679687-10.863281 16.824219-17.613281 29.085937-17.613281h103.789063c4.183593 0 7.574219-3.390625 7.574219-7.574219s-3.390626-7.574219-7.574219-7.574219h-103.789063c-17.917968 0-34.210937 9.863282-42.511718 25.746094l-5.179688 9.910156-5.179688-9.910156c-8.300781-15.882812-24.59375-25.75-42.511718-25.75h-103.789063c-4.179687 0-7.574219 3.390625-7.574219 7.574219 0 4.183593 3.394532 7.574219 7.574219 7.574219h103.789063c12.261718 0 23.40625 6.75 29.085937 17.617187l6.101563 11.667969h-18.699219l-19.132813-5.738282c-.703124-.210937-1.4375-.320312-2.175781-.320312h-171.828125l7.582032-16.007812c2.078124-4.386719 6.558593-7.21875 11.410156-7.21875h18.523437c4.183594 0 7.574219-3.390626 7.574219-7.574219 0-4.183594-3.390625-7.574219-7.574219-7.574219h-18.523437c-10.679688 0-20.53125 6.234375-25.097656 15.882812l-10.777344 22.75c-8.371094 1.390626-14.777344 8.660157-14.777344 17.417969v11.609375c0 9.746094 7.929688 17.675782 17.671875 17.675782h184.613281l19.058594 6.191406c.753906.246094 1.546875.371094 2.339844.371094h64.632812c.792969 0 1.585938-.125 2.339844-.371094l19.058594-6.191406h184.613281c9.742187 0 17.671875-7.929688 17.671875-17.675782v-11.609375c0-8.757812-6.40625-16.027343-14.777344-17.414062zm-291.394531 31.921875c-.757813-.246094-1.546875-.371094-2.339844-.371094h-185.816406c-1.390625 0-2.523437-1.132812-2.523437-2.527344v-11.609375c0-1.394531 1.132812-2.527343 2.523437-2.527343h184.703125l19.132812 5.742187c.707032.210937 1.441407.320313 2.175782.320313h24.742187v17.167968h-23.539062zm291.023437-2.898438c0 1.394532-1.132812 2.527344-2.523437 2.527344h-185.816406c-.792969 0-1.582031.125-2.339844.371094l-19.054687 6.191406h-23.542969v-17.164062h24.742187c.738282 0 1.46875-.109376 2.175782-.320313l19.132812-5.742187h184.703125c1.394531 0 2.527344 1.132812 2.527344 2.527343v11.609375zm0 0"/><path d="m209.191406 94.960938c6.425782 0 12.542969-1.671876 17.832032-4.792969 3.566406 4.449219 8.734374 11.660156 13.09375 20.675781h-35.621094c-9.742188 0-17.671875 7.929688-17.671875 17.671875v20.199219c0 9.742187 7.929687 17.671875 17.671875 17.671875h2.527344v13.253906c0 4.183594 3.390624 7.574219 7.574218 7.574219 4.179688 0 7.574219-3.390625 7.574219-7.574219v-13.253906h26.253906v53.765625h-26.253906v-4.546875c0-4.183594-3.394531-7.574219-7.574219-7.574219-4.183594 0-7.574218 3.390625-7.574218 7.574219v92.90625c0 27.007812 21.96875 48.980469 48.976562 48.980469s48.976562-21.972657 48.976562-48.980469v-142.125h2.527344c9.742188 0 17.671875-7.929688 17.671875-17.671875v-20.199219c0-9.742187-7.929687-17.671875-17.671875-17.671875h-35.621094c4.363282-9.015625 9.53125-16.226562 13.09375-20.675781 5.289063 3.121093 11.40625 4.792969 17.832032 4.792969 12.414062 0 25.089844-5.980469 35.6875-16.847657 21.25-21.789062 23.390625-68.261719 23.46875-70.230469.089844-2.144531-.738282-4.230468-2.277344-5.730468s-3.636719-2.273438-5.789062-2.136719c-1.964844.128906-48.371094 3.425781-69.625 25.214844-9.230469 9.464843-14.683594 20.269531-15.769532 31.25-.847656 8.5625 1.082032 16.574219 5.460938 23.195312-4.761719 5.792969-12.304688 16.160157-17.964844 29.507813-5.660156-13.347656-13.203125-23.714844-17.964844-29.507813 4.382813-6.621093 6.308594-14.632812 5.460938-23.195312-1.085938-10.980469-6.539063-21.785157-15.769532-31.25-21.257812-21.789063-67.660156-25.082031-69.625-25.214844-2.144531-.132813-4.25.636719-5.789062 2.136719-1.539062 1.503906-2.367188 3.585937-2.277344 5.734375.078125 1.96875 2.21875 48.4375 23.46875 70.230469 10.597656 10.863281 23.273438 16.84375 35.6875 16.84375zm46.808594 247.382812c-18.652344 0-33.828125-15.175781-33.828125-33.832031v-73.214844h67.660156v73.214844c-.003906 18.65625-15.179687 33.832031-33.832031 33.832031zm33.828125-122.191406h-26.253906v-53.765625h26.253906zm20.199219-91.636719v20.199219c0 1.390625-1.132813 2.523437-2.523438 2.523437h-103.007812c-1.394532 0-2.523438-1.132812-2.523438-2.523437v-20.199219c0-1.390625 1.128906-2.523437 2.523438-2.523437h46.925781.019531.015625 9.082031.019532.019531 46.925781c1.390625 0 2.523438 1.132812 2.523438 2.523437zm-26.449219-70.542969c.734375-7.414062 4.832031-15.285156 11.539063-22.164062 12.335937-12.648438 37.527343-17.777344 50.933593-19.675782-1.566406 13.449219-6.066406 38.757813-18.398437 51.40625-7.722656 7.914063-16.546875 12.277344-24.84375 12.277344-5.320313 0-10.035156-1.859375-13.632813-5.371094-4.3125-4.203124-6.246093-9.898437-5.597656-16.472656zm-66.695313-22.164062c6.707032 6.878906 10.804688 14.75 11.539063 22.164062.648437 6.574219-1.285156 12.269532-5.597656 16.472656-3.601563 3.515626-8.3125 5.371094-13.632813 5.371094-8.296875 0-17.121094-4.359375-24.84375-12.277344-12.34375-12.660156-16.839844-38.003906-18.402344-51.441406 15.082032 2.148438 39.355469 7.835938 50.9375 19.710938zm0 0"/><path d="m253.980469 265.089844c0 5.578125-4.519531 10.097656-10.097657 10.097656-5.578124 0-10.101562-4.519531-10.101562-10.097656s4.523438-10.097656 10.101562-10.097656c5.578126 0 10.097657 4.519531 10.097657 10.097656zm0 0"/><path d="m274.175781 285.285156c0 3.90625-3.164062 7.070313-7.066406 7.070313-3.90625 0-7.070313-3.164063-7.070313-7.070313 0-3.902344 3.164063-7.066406 7.070313-7.066406 3.902344 0 7.066406 3.164062 7.066406 7.066406zm0 0"/><path d="m253.980469 310.535156c0 2.785156-2.261719 5.046875-5.050781 5.046875-2.789063 0-5.046876-2.261719-5.046876-5.046875 0-2.789062 2.257813-5.050781 5.046876-5.050781 2.789062 0 5.050781 2.261719 5.050781 5.050781zm0 0"/></svg>