<svg height="512pt" viewBox="0 -1 512.001 512" width="512pt" xmlns="http://www.w3.org/2000/svg"><path d="m429.695312 346.382812c-2.210937 0-4.394531.113282-6.5625.285157v-25.027344c0-4.183594-3.390624-7.574219-7.574218-7.574219h-86.917969c6.839844-7.789062 12.886719-16.230468 18.074219-25.246094h22.597656c4.183594 0 7.574219-3.390624 7.574219-7.574218v-57.5625h17.96875.019531c4.183594 0 7.574219-3.390625 7.574219-7.574219 0-2.257813-.988281-4.285156-2.558594-5.675781l-36.644531-36.644532c-8.015625-33.363281-27.097656-63.597656-53.929688-85.328124-25.859375-20.941407-57.984375-33.128907-91.1875-34.746094v-46.140625c0-4.183594-3.390625-7.574219-7.574218-7.574219-116.101563 0-210.554688 94.457031-210.554688 210.554688 0 4.183593 3.390625 7.574218 7.574219 7.574218h46.128906c.800781 16.953125 4.296875 33.488282 10.421875 49.261719 1.164062 3 4.027344 4.835937 7.0625 4.835937.910156 0 1.839844-.167968 2.738281-.515624 3.898438-1.515626 5.832031-5.902344 4.320313-9.800782-5.445313-14.019531-8.589844-28.714844-9.378906-43.78125h141.6875c4.183593 0 7.574218-3.390625 7.574218-7.574218v-141.679688c58.613282 3.191406 109.964844 43.125 127.679688 98.722656l-43.15625 43.15625c-2.167969 2.167969-2.816406 5.425782-1.644532 8.253906 1.175782 2.832032 3.933594 4.675782 7 4.675782h17.96875v57.5625c0 2.75 1.46875 5.148437 3.65625 6.476562-6.25 9.632813-13.65625 18.445313-22.089843 26.347656h-19.226563c-4.183594 0-7.574218 3.390626-7.574218 7.570313v12.246094c-21.308594 12.148437-45.480469 18.558593-70.1875 18.558593-46.234376 0-89.699219-22.636718-116.273438-60.550781-2.402344-3.425781-7.125-4.253906-10.550781-1.855469-3.425781 2.402344-4.253907 7.125-1.851563 10.550782 29.402344 41.953125 77.507813 67 128.675782 67 24.484374 0 48.492187-5.703125 70.1875-16.546875v35.734375h-119.667969c-4.183594 0-7.574219 3.390625-7.574219 7.574218v28.78125h-67.726562c-4.179688 0-7.574219 3.390626-7.574219 7.574219 0 4.183594 3.394531 7.574219 7.574219 7.574219h67.726562v21.207031h-113.105469v-21.207031h10.082031c4.183594 0 7.574219-3.390625 7.574219-7.574219 0-4.183593-3.390625-7.574219-7.574219-7.574219h-17.65625c-4.183593 0-7.574218 3.390626-7.574218 7.574219v72.710938c0 4.183593 3.390625 7.574219 7.574218 7.574219h382.738282c1.167968 0 2.265625-.273438 3.253906-.742188 3.566406.472656 7.191406.742188 10.882812.742188 45.382813 0 82.304688-36.921876 82.304688-82.304688s-36.921875-82.304688-82.304688-82.304688zm-226.714843-143.398437h-187.6875c3.898437-101.734375 85.957031-183.789063 187.6875-187.691406zm123.3125 5.550781 25.140625-25.136718 25.136718 25.136718h-7.257812c-4.183594 0-7.574219 3.390625-7.574219 7.574219v57.5625h-19.449219c-.027343 0-.050781 0-.074218 0h-1.089844v-57.5625c0-4.183594-3.390625-7.574219-7.574219-7.574219zm-157.644531 229.746094h112.09375v21.207031h-112.09375zm127.242187 0h52.078125c.867188 7.414062 2.71875 14.523438 5.425781 21.207031h-57.503906zm51.710937-15.148438h-51.710937v-21.207031h55.992187c-2.316406 6.722657-3.789062 13.832031-4.28125 21.207031zm11.300782-36.355468h-63.011719v-21.207032h81.054687c-7.144531 5.984376-13.257812 13.152344-18.042968 21.207032zm-63.011719-57.5625h112.09375v20.09375c-1.25.34375-2.492187.714844-3.71875 1.113281h-108.375zm-127.242187 72.710937h112.09375v21.207031h-112.09375zm-128.253907 72.710938h113.105469v21.207031h-113.105469zm128.253907 0h112.09375v21.207031h-112.09375zm127.242187 21.207031v-21.207031h65.554687c5.578126 8.261719 12.632813 15.441406 20.757813 21.207031zm133.804687 0c-37.03125 0-67.15625-30.128906-67.15625-67.15625 0-37.03125 30.125-67.15625 67.15625-67.15625s67.15625 30.125 67.15625 67.15625c0 37.027344-30.125 67.15625-67.15625 67.15625zm0 0"/><path d="m429.695312 394.855469c6.960938 0 12.625 5.664062 12.625 12.625 0 4.183593 3.390626 7.574219 7.574219 7.574219 4.179688 0 7.574219-3.390626 7.574219-7.574219 0-12.6875-8.558594-23.40625-20.199219-26.714844v-3.582031c0-4.183594-3.390625-7.574219-7.574219-7.574219-4.183593 0-7.574218 3.390625-7.574218 7.574219v3.582031c-11.640625 3.308594-20.195313 14.027344-20.195313 26.714844v1.007812c0 14.199219 11.550781 25.753907 25.75 25.753907h4.039063c5.847656 0 10.605468 4.753906 10.605468 10.601562v2.019531c0 6.960938-5.664062 12.625-12.625 12.625-6.960937 0-12.621093-5.664062-12.621093-12.625 0-4.183593-3.390625-7.574219-7.574219-7.574219s-7.574219 3.390626-7.574219 7.574219c0 12.6875 8.554688 23.410157 20.195313 26.714844v3.582031c0 4.183594 3.390625 7.574219 7.574218 7.574219 4.183594 0 7.574219-3.390625 7.574219-7.574219v-3.582031c11.640625-3.304687 20.199219-14.027344 20.199219-26.714844v-2.019531c0-14.199219-11.554688-25.75-25.753906-25.75h-4.039063c-5.847656 0-10.601562-4.757812-10.601562-10.605469v-1.007812c0-6.960938 5.660156-12.625 12.621093-12.625zm0 0"/></svg>