<svg height="511pt" viewBox="0 -25 511.998 511" width="511pt" xmlns="http://www.w3.org/2000/svg"><path d="m466.191406 360.429688-20.667968-7.175782c11.570312-9.164062 19.011718-23.320312 19.011718-39.191406v-15.148438c0-3.347656-.332031-6.699218-.992187-9.953124-.828125-4.101563-4.824219-6.757813-8.925781-5.925782-4.097657.828125-6.75 4.824219-5.921876 8.925782.460938 2.269531.691407 4.609374.691407 6.953124v15.148438c0 19.210938-15.628907 34.839844-34.839844 34.839844s-34.839844-15.628906-34.839844-34.839844v-15.148438c0-19.210937 15.628907-34.839843 34.839844-34.839843 6.265625 0 12.40625 1.679687 17.757813 4.855469 3.597656 2.136718 8.246093.953124 10.378906-2.644532 2.136718-3.59375.953125-8.242187-2.644532-10.378906-5.507812-3.273438-11.601562-5.417969-17.917968-6.382812v-90.980469c0-37.585938-30.578125-68.164063-68.164063-68.164063h-29.296875l23.0625-13.316406c3.621094-2.09375 4.863282-6.722656 2.769532-10.347656l-20.195313-34.980469c-1.003906-1.742187-2.660156-3.007813-4.597656-3.53125-1.9375-.515625-4.007813-.246094-5.75.757813l-23.933594 13.820312c-3.835937-2.792969-7.929687-5.160156-12.246094-7.085938v-27.621093c0-4.183594-3.390625-7.574219-7.574219-7.574219h-40.394531c-4.183593 0-7.574219 3.390625-7.574219 7.574219v27.621093c-4.316406 1.925782-8.410156 4.292969-12.246093 7.085938l-23.933594-13.820312c-1.738281-1.003907-3.808594-1.273438-5.746094-.757813-1.941406.523437-3.597656 1.789063-4.601562 3.53125l-20.195313 34.980469c-2.09375 3.625-.851562 8.253906 2.773438 10.347656l23.058594 13.316406h-29.292969c-37.589844 0-68.167969 30.578125-68.167969 68.164063v90.980469c-6.316406.964843-12.40625 3.109374-17.917969 6.382812-3.597656 2.136719-4.78125 6.785156-2.644531 10.378906 2.136719 3.597656 6.785156 4.78125 10.378906 2.644532 5.351563-3.175782 11.492188-4.855469 17.757813-4.855469 19.210937 0 34.839843 15.628906 34.839843 34.839843v15.148438c0 19.210938-15.628906 34.839844-34.839843 34.839844-19.210938 0-34.839844-15.628906-34.839844-34.839844v-15.148438c0-2.34375.234375-4.683593.691406-6.953124.828125-4.101563-1.820312-8.097657-5.921875-8.925782-4.109375-.832031-8.097656 1.824219-8.925781 5.925782-.65625 3.253906-.992187 6.605468-.992187 9.953124v15.148438c0 15.871094 7.445312 30.027344 19.015624 39.191406l-20.671874 7.175782c-27.394532 9.507812-45.804688 35.386718-45.804688 64.394531v29.609375c0 4.179687 3.390625 7.574218 7.574219 7.574218h208.535156c4.183594 0 7.574219-3.394531 7.574219-7.574218 0-4.183594-3.390625-7.574219-7.574219-7.574219h-42.414063v-22.035156c0-22.558594 14.320313-42.6875 35.628907-50.085938l8.859375-3.078125 31.253906 54.238282c1.351562 2.347656 3.851562 3.792968 6.5625 3.792968 2.707031 0 5.210938-1.449218 6.5625-3.792968l31.253906-54.238282 8.859375 3.078125c21.308594 7.398438 35.625 27.527344 35.625 50.085938v22.035156h-86.785156c-4.179687 0-7.574219 3.390625-7.574219 7.574219 0 4.179687 3.394532 7.574218 7.574219 7.574218h252.910156c4.179688 0 7.570313-3.394531 7.570313-7.574218v-29.609375c.003906-29.007813-18.40625-54.886719-45.804688-64.394531zm-35.753906 3.621093 7.359375 2.554688-23.25 40.339843-23.246094-40.339843 7.355469-2.554688zm-239.402344-318.183593 21.816406 12.597656c2.78125 1.605468 6.273438 1.28125 8.710938-.804688 4.988281-4.265625 10.625-7.527344 16.765625-9.699218 3.027344-1.070313 5.050781-3.929688 5.050781-7.140626v-25.171874h25.246094v25.171874c0 3.210938 2.023438 6.070313 5.046875 7.140626 6.140625 2.171874 11.78125 5.433593 16.765625 9.699218 2.441406 2.085938 5.929688 2.40625 8.710938.804688l21.816406-12.597656 12.625 21.863281-21.8125 12.59375c-2.777344 1.601562-4.242188 4.78125-3.660156 7.933593.597656 3.238282.898437 6.5.898437 9.691407 0 3.195312-.300781 6.457031-.898437 9.695312-.582032 3.152344.882812 6.332031 3.660156 7.933594l21.8125 12.59375-12.625 21.863281-21.816406-12.597656c-2.78125-1.605469-6.269532-1.28125-8.710938.804688-4.984375 4.265624-10.625 7.527343-16.765625 9.699218-3.027344 1.070313-5.046875 3.929688-5.046875 7.140625v25.171875h-25.246094v-25.171875c0-3.210937-2.023437-6.070312-5.050781-7.140625-6.140625-2.171875-11.777344-5.433594-16.765625-9.699218-2.441406-2.085938-5.929688-2.410157-8.710938-.804688l-21.816406 12.597656-12.625-21.863281 21.8125-12.59375c2.777344-1.601563 4.246094-4.78125 3.660156-7.933594-.597656-3.238281-.898437-6.5-.898437-9.695312 0-3.191407.300781-6.453125.898437-9.691407.585938-3.152343-.882812-6.332031-3.660156-7.933593l-21.8125-12.59375zm64.964844 303.035156c-19.210938 0-34.839844-15.628906-34.839844-34.839844v-15.148438c0-19.210937 15.628906-34.839843 34.839844-34.839843s34.839844 15.628906 34.839844 34.839843v15.148438c0 19.210938-15.628906 34.839844-34.839844 34.839844zm-142.65625 15.148437 7.355469 2.554688-23.25 40.339843-23.246094-40.339843 7.355469-2.554688zm-98.195312 82.808594v-22.035156c0-22.5625 14.316406-42.6875 35.628906-50.085938l8.859375-3.074219 31.253906 54.234376c1.351563 2.347656 3.851563 3.792968 6.558594 3.792968 2.710937 0 5.210937-1.449218 6.5625-3.792968l31.253906-54.234376 8.863281 3.074219c9.253906 3.210938 17.265625 8.792969 23.425782 16.261719-5.765626 10.078125-9.007813 21.675781-9.007813 33.824219v22.035156zm189.207031-86.429687c-10.796875 3.75-20.1875 10.046874-27.617188 18.066406-7.546875-8.179688-16.949219-14.355469-27.640625-18.066406l-20.671875-7.175782c11.570313-9.164062 19.015625-23.320312 19.015625-39.191406v-15.148438c0-24.988281-18.433594-45.753906-42.414062-49.417968v-90.953125c0-29.234375 23.78125-53.019531 53.015625-53.019531h29.296875l-23.0625 13.316406c-3.621094 2.089844-4.863282 6.722656-2.769532 10.34375l20.195313 34.984375c1.003906 1.738281 2.660156 3.007812 4.597656 3.527343 1.941407.519532 4.007813.25 5.75-.757812l23.933594-13.816406c3.835937 2.789062 7.929687 5.160156 12.246094 7.085937v27.621094c0 4.183594 3.390625 7.574219 7.574219 7.574219h12.621093v54.09375c-23.980469 3.664062-42.414062 24.425781-42.414062 49.417968v15.148438c0 15.871094 7.445312 30.027344 19.015625 39.191406zm51.644531 46.515624-23.25-40.339843 7.359375-2.554688h31.78125l7.355469 2.554688zm51.644531-46.515624-20.667969-7.175782c11.570313-9.164062 19.011719-23.320312 19.011719-39.191406v-15.148438c0-24.988281-18.433593-45.753906-42.414062-49.417968v-54.09375h12.621093c4.183594 0 7.574219-3.390625 7.574219-7.574219v-27.621094c4.320313-1.925781 8.410157-4.296875 12.25-7.085937l23.929688 13.816406c1.742187 1.007812 3.808593 1.277344 5.75.757812 1.941406-.519531 3.59375-1.789062 4.597656-3.527343l20.199219-34.984375c2.089844-3.621094.847656-8.253906-2.773438-10.34375l-23.0625-13.316406h29.296875c29.234375 0 53.019531 23.785156 53.019531 53.019531v90.953125c-23.984374 3.664062-42.414062 24.425781-42.414062 49.417968v15.148438c0 15.871094 7.441406 30.027344 19.011719 39.191406l-20.667969 7.175782c-10.695312 3.710937-20.097656 9.886718-27.644531 18.0625-7.429688-8.019532-16.820313-14.316407-27.617188-18.0625zm189.207031 86.429687h-143.398437v-22.035156c0-12.148438-3.242187-23.746094-9.011719-33.824219 6.164063-7.46875 14.175782-13.050781 23.429688-16.261719l8.859375-3.078125 31.253906 54.238282c1.355469 2.34375 3.855469 3.789062 6.5625 3.789062 2.710937 0 5.210937-1.445312 6.5625-3.789062l31.253906-54.238282 8.859375 3.078125c21.3125 7.398438 35.628906 27.523438 35.628906 50.082031zm0 0"/><path d="m256 125.722656c15.3125 0 27.769531-12.460937 27.769531-27.773437s-12.457031-27.769531-27.769531-27.769531-27.769531 12.457031-27.769531 27.769531 12.457031 27.773437 27.769531 27.773437zm0-40.394531c6.960938 0 12.621094 5.660156 12.621094 12.621094 0 6.960937-5.660156 12.625-12.621094 12.625s-12.621094-5.664063-12.621094-12.625c0-6.960938 5.660156-12.621094 12.621094-12.621094zm0 0"/></svg>