<svg height="512pt" viewBox="-42 0 512 512" width="512pt" xmlns="http://www.w3.org/2000/svg"><path d="m362.460938 372.644531-86.25-23.964843c-.664063-.183594-1.347657-.277344-2.03125-.277344h-16.664063v-23.03125c27.980469-13.328125 49.007813-38.96875 56.03125-69.875h10.113281c15.3125 0 27.773438-12.457032 27.773438-27.769532v-14.140624c0-8.125-3.507813-15.445313-9.089844-20.527344v-32.992188c0-4.183594-3.390625-7.574218-7.574219-7.574218h-158.058593c-4.183594 0-7.574219 3.390624-7.574219 7.574218 0 4.179688 3.390625 7.574219 7.574219 7.574219h124.230468v65.132813c0 48.167968-39.1875 87.355468-87.355468 87.355468-48.164063 0-87.351563-39.1875-87.351563-87.355468v-65.132813h15.148437c4.183594 0 7.574219-3.394531 7.574219-7.574219 0-4.183594-3.390625-7.574218-7.574219-7.574218h-48.980468c-4.179688 0-7.574219 3.390624-7.574219 7.574218v32.992188c-5.578125 5.082031-9.085937 12.402344-9.085937 20.527344v14.140624c0 15.3125 12.457031 27.769532 27.769531 27.769532h10.117187c7.019532 30.90625 28.046875 56.546875 56.027344 69.875v23.03125h-16.660156c-.6875 0-1.371094.09375-2.03125.277344l-86.25 23.964843c-38.101563 10.574219-64.714844 45.582031-64.714844 85.136719v1.832031c0 4.183594 3.390625 7.574219 7.574219 7.574219 4.183593 0 7.574219-3.390625 7.574219-7.574219v-1.832031c0-32.773438 22.046874-61.78125 53.621093-70.542969l69.546875-19.320312c2.550782 16.203125 10.238282 31.132812 22.210938 42.757812 14.3125 13.894531 33.152344 21.546875 53.058594 21.546875s38.75-7.652344 53.058593-21.546875c11.972657-11.628906 19.660157-26.554687 22.210938-42.757812l69.550781 19.320312c31.570312 8.761719 53.617188 37.769531 53.617188 70.542969v1.832031c0 4.183594 3.390624 7.574219 7.574218 7.574219s7.574219-3.390625 7.574219-7.574219v-1.832031c0-39.554688-26.613281-74.566406-64.710937-85.136719zm-26.175782-144.921875c0 6.960938-5.664062 12.625-12.625 12.625h-7.851562c.183594-2.5.28125-5.027344.28125-7.574218v-31.8125h7.570312c6.960938 0 12.625 5.664062 12.625 12.625zm-9.089844-41.675781c-1.160156-.148437-2.335937-.234375-3.535156-.234375h-7.574218v-18.175781h11.109374zm-227.21875-18.410156h11.109376v18.179687h-7.574219c-1.199219 0-2.375.082032-3.535157.230469zm3.535157 72.710937c-6.960938 0-12.621094-5.664062-12.621094-12.625v-14.136718c0-6.960938 5.660156-12.621094 12.621094-12.621094h7.574219v31.808594c0 2.546874.097656 5.074218.28125 7.574218zm110.074219 94.925782c9.988281 0 19.648437-1.441407 28.78125-4.117188v24.820312c0 15.871094-12.910157 28.78125-28.78125 28.78125-15.867188 0-28.78125-12.910156-28.78125-28.78125v-24.820312c9.136718 2.675781 18.792968 4.117188 28.78125 4.117188zm60.578124 28.5625c-3.832031 30.289062-29.394531 53.238281-60.578124 53.238281-31.179688 0-56.746094-22.949219-60.574219-53.238281l1.019531-.285157h16.292969c3.601562 20.625 21.625 36.355469 43.261719 36.355469 21.640624 0 39.660156-15.730469 43.261718-36.355469h16.296875zm0 0"/><path d="m419.597656 487.511719c-4.183594 0-7.574218 3.390625-7.574218 7.574219v1.765624h-65.640626v-29.789062c0-4.183594-3.390624-7.574219-7.574218-7.574219-4.179688 0-7.574219 3.390625-7.574219 7.574219v29.789062h-235.296875v-29.789062c0-4.183594-3.390625-7.574219-7.574219-7.574219-4.183593 0-7.574219 3.390625-7.574219 7.574219v29.789062h-65.640624v-1.765624c0-4.183594-3.390626-7.574219-7.574219-7.574219-4.183594 0-7.574219 3.390625-7.574219 7.574219v9.339843c0 4.183594 3.390625 7.574219 7.574219 7.574219h412.023437c4.183594 0 7.574219-3.390625 7.574219-7.574219v-9.339843c0-4.183594-3.390625-7.574219-7.574219-7.574219zm0 0"/><path d="m171.171875 136.332031c16.015625 0 30.75-5.566406 42.398437-14.847656 12.035157 9.617187 26.867188 14.847656 42.433594 14.847656 37.585938 0 68.164063-30.578125 68.164063-68.167969 0-37.585937-30.578125-68.164062-68.167969-68.164062-16.015625 0-30.75 5.566406-42.398438 14.851562-12.035156-9.617187-26.855468-14.851562-42.429687-14.851562-37.585937 0-68.164063 30.578125-68.164063 68.164062 0 37.589844 30.578126 68.167969 68.164063 68.167969zm0-121.183593c11.519531 0 22.507813 3.691406 31.613281 10.492187-4.460937 5.570313-8.074218 11.851563-10.625 18.648437-5.605468-4.933593-12.949218-7.933593-20.988281-7.933593-17.539063 0-31.808594 14.269531-31.808594 31.808593 0 17.542969 14.269531 31.8125 31.808594 31.8125 17.542969 0 31.8125-14.269531 31.8125-31.8125 0-29.230468 23.785156-53.015624 53.019531-53.015624 29.230469 0 53.015625 23.785156 53.015625 53.015624 0 29.234376-23.785156 53.019532-53.015625 53.019532-11.511718 0-22.507812-3.691406-31.613281-10.492188 4.460937-5.574218 8.074219-11.851562 10.625-18.652344 5.605469 4.9375 12.949219 7.9375 20.988281 7.9375 17.539063 0 31.808594-14.269531 31.808594-31.8125 0-17.539062-14.269531-31.808593-31.808594-31.808593-17.542968 0-31.8125 14.269531-31.8125 31.808593 0 29.234376-23.785156 53.019532-53.019531 53.019532s-53.015625-23.785156-53.015625-53.019532c0-29.230468 23.78125-53.015624 53.015625-53.015624zm16.664063 53.015624c0 9.191407-7.476563 16.664063-16.664063 16.664063s-16.660156-7.472656-16.660156-16.664063c0-9.1875 7.472656-16.660156 16.660156-16.660156s16.664063 7.472656 16.664063 16.660156zm51.503906 0c0-9.1875 7.472656-16.660156 16.660156-16.660156s16.664062 7.472656 16.664062 16.660156c0 9.191407-7.476562 16.664063-16.664062 16.664063s-16.660156-7.472656-16.660156-16.664063zm0 0"/></svg>