<svg height="511pt" viewBox="-33 1 511 511.999" width="511pt" xmlns="http://www.w3.org/2000/svg"><path d="m438.277344 0h-382.738282c-4.183593 0-7.574218 3.390625-7.574218 7.574219v212.660156c0 4.183594 3.390625 7.574219 7.574218 7.574219 4.179688 0 7.574219-3.390625 7.574219-7.574219v-205.085937h367.589844v441.816406c0 21.992187-17.898437 39.886718-39.890625 39.886718-21.996094 0-39.890625-17.894531-39.890625-39.886718 0-4.183594-3.390625-7.574219-7.574219-7.574219h-103.679687c-4.179688 0-7.574219 3.390625-7.574219 7.574219 0 4.179687 3.394531 7.570312 7.574219 7.570312h96.625c1.75 12.644532 7.808593 23.925782 16.644531 32.316406h-297.398438c-19.410156 0-35.621093-13.925781-39.167968-32.316406h187.996094c4.179687 0 7.574218-3.390625 7.574218-7.570312 0-4.183594-3.394531-7.574219-7.574218-7.574219h-141.863282l.605469-194.207031c.015625-4.183594-3.367187-7.585938-7.550781-7.597656-.007813 0-.015625 0-.023438 0-4.171875 0-7.558594 3.375-7.570312 7.546874l-.609375 194.253907h-39.28125c-4.183594 0-7.574219 3.390625-7.574219 7.574219 0 30.347656 24.691406 55.039062 55.035156 55.039062h335.273438c30.351562 0 55.039062-24.691406 55.039062-55.039062v-449.386719c0-4.183594-3.390625-7.574219-7.570312-7.574219zm0 0"/><path d="m351.425781 63.621094c-15.3125 0-27.769531 12.457031-27.769531 27.769531v28.277344c0 4.183593 3.390625 7.574219 7.574219 7.574219 4.183593 0 7.574219-3.390626 7.574219-7.574219v-12.621094h25.246093v12.621094c0 4.183593 3.390625 7.574219 7.574219 7.574219s7.574219-3.390626 7.574219-7.574219v-28.273438c0-15.316406-12.457031-27.773437-27.773438-27.773437zm-12.621093 28.277344v-.507813c0-6.960937 5.660156-12.621094 12.621093-12.621094 6.960938 0 12.625 5.664063 12.625 12.621094v.507813zm0 0"/><path d="m351.425781 31.304688c-35.359375 0-64.125 28.769531-64.125 64.128906 0 35.355468 28.765625 64.125 64.125 64.125s64.125-28.769532 64.125-64.125c0-35.359375-28.765625-64.128906-64.125-64.128906zm0 113.105468c-27.007812 0-48.976562-21.972656-48.976562-48.976562 0-27.007813 21.96875-48.980469 48.976562-48.980469 27.007813 0 48.980469 21.972656 48.980469 48.980469 0 27.003906-21.972656 48.976562-48.980469 48.976562zm0 0"/><path d="m86.84375 61.601562h56.550781c4.183594 0 7.574219-3.390624 7.574219-7.574218s-3.390625-7.574219-7.574219-7.574219h-56.550781c-4.183594 0-7.574219 3.390625-7.574219 7.574219s3.390625 7.574218 7.574219 7.574218zm0 0"/><path d="m86.84375 93.917969h96.945312c4.183594 0 7.574219-3.390625 7.574219-7.574219s-3.390625-7.574219-7.574219-7.574219h-96.945312c-4.183594 0-7.574219 3.390625-7.574219 7.574219s3.390625 7.574219 7.574219 7.574219zm0 0"/><path d="m86.84375 125.222656h96.945312c4.183594 0 7.574219-3.390625 7.574219-7.574218 0-4.183594-3.390625-7.574219-7.574219-7.574219h-96.945312c-4.183594 0-7.574219 3.390625-7.574219 7.574219 0 4.183593 3.390625 7.574218 7.574219 7.574218zm0 0"/><path d="m86.84375 242.367188h208.03125c4.183594 0 7.574219-3.390626 7.574219-7.574219 0-4.183594-3.390625-7.574219-7.574219-7.574219h-208.03125c-4.183594 0-7.574219 3.390625-7.574219 7.574219 0 4.183593 3.390625 7.574219 7.574219 7.574219zm0 0"/><path d="m86.84375 276.703125h137.339844c4.183594 0 7.574218-3.390625 7.574218-7.574219s-3.390624-7.574218-7.574218-7.574218h-137.339844c-4.183594 0-7.574219 3.390624-7.574219 7.574218s3.390625 7.574219 7.574219 7.574219zm0 0"/><path d="m412.246094 229.359375c-3-2.914063-7.796875-2.84375-10.710938.160156l-27.796875 28.636719-9.714843-10.367188c-2.863282-3.050781-7.65625-3.203124-10.707032-.34375-3.050781 2.859376-3.207031 7.652344-.347656 10.707032l15.148438 16.15625c1.417968 1.511718 3.390624 2.375 5.460937 2.394531h.066406c2.046875 0 4.007813-.832031 5.433594-2.300781l33.328125-34.335938c2.910156-3 2.839844-7.796875-.160156-10.707031zm0 0"/><path d="m86.84375 316.085938h208.03125c4.183594 0 7.574219-3.390626 7.574219-7.574219 0-4.183594-3.390625-7.574219-7.574219-7.574219h-208.03125c-4.183594 0-7.574219 3.390625-7.574219 7.574219 0 4.183593 3.390625 7.574219 7.574219 7.574219zm0 0"/><path d="m86.84375 350.421875h137.339844c4.183594 0 7.574218-3.390625 7.574218-7.574219s-3.390624-7.574218-7.574218-7.574218h-137.339844c-4.183594 0-7.574219 3.390624-7.574219 7.574218s3.390625 7.574219 7.574219 7.574219zm0 0"/><path d="m412.246094 303.078125c-3-2.914063-7.796875-2.84375-10.710938.160156l-27.796875 28.636719-9.714843-10.363281c-2.863282-3.050781-7.65625-3.207031-10.707032-.347657-3.050781 2.863282-3.207031 7.65625-.347656 10.707032l15.148438 16.15625c1.417968 1.511718 3.390624 2.378906 5.460937 2.394531h.066406c2.046875 0 4.007813-.828125 5.433594-2.300781l33.328125-34.332032c2.910156-3.003906 2.839844-7.796874-.160156-10.710937zm0 0"/><path d="m86.84375 389.808594h208.03125c4.183594 0 7.574219-3.394532 7.574219-7.574219 0-4.183594-3.390625-7.574219-7.574219-7.574219h-208.03125c-4.183594 0-7.574219 3.390625-7.574219 7.574219 0 4.179687 3.390625 7.574219 7.574219 7.574219zm0 0"/><path d="m86.84375 424.140625h137.339844c4.183594 0 7.574218-3.390625 7.574218-7.574219 0-4.179687-3.390624-7.574218-7.574218-7.574218h-137.339844c-4.183594 0-7.574219 3.394531-7.574219 7.574218 0 4.183594 3.390625 7.574219 7.574219 7.574219zm0 0"/><path d="m401.535156 376.957031-27.796875 28.640625-9.714843-10.367187c-2.863282-3.050781-7.65625-3.207031-10.707032-.34375-3.050781 2.859375-3.207031 7.652343-.347656 10.703125l15.148438 16.160156c1.417968 1.511719 3.390624 2.375 5.460937 2.390625h.066406c2.046875 0 4.007813-.828125 5.433594-2.296875l33.328125-34.335938c2.910156-3 2.839844-7.796874-.160156-10.710937-3-2.910156-7.796875-2.84375-10.710938.160156zm0 0"/></svg>