<svg height="512pt" viewBox="0 -25 512 512" width="512pt" xmlns="http://www.w3.org/2000/svg"><path d="m484.230469 0h-50.957031c-4.183594 0-7.574219 3.390625-7.574219 7.574219 0 4.183593 3.390625 7.574219 7.574219 7.574219h50.957031c6.960937 0 12.621093 5.664062 12.621093 12.621093v286.800781c0 6.960938-5.664062 12.625-12.621093 12.625h-456.460938c-6.960937 0-12.621093-5.664062-12.621093-12.625v-286.800781c0-6.960937 5.664062-12.621093 12.621093-12.621093h370.179688c4.183593 0 7.574219-3.390626 7.574219-7.574219 0-4.183594-3.390626-7.574219-7.574219-7.574219h-370.179688c-15.3125 0-27.769531 12.457031-27.769531 27.769531v286.800781c0 15.316407 12.457031 27.773438 27.769531 27.773438h168.144531v23.25c0 19.335938-10.527343 37.136719-27.46875 46.457031l-9.003906 4.949219c-2.417968 1.332031-3.921875 3.875-3.921875 6.636719v30.296875c0 4.183594 3.390625 7.574218 7.574219 7.574218h185.332031c4.183594 0 7.574219-3.390624 7.574219-7.574218v-30.296875c0-2.761719-1.503906-5.304688-3.925781-6.636719l-9-4.949219c-16.945313-9.320312-27.46875-27.121093-27.46875-46.457031v-23.25h168.625c15.3125 0 27.769531-12.457031 27.769531-27.773438v-286.800781c0-15.3125-12.457031-27.769531-27.769531-27.769531zm-148.457031 425.320312 5.078124 2.792969v18.246094h-170.183593v-18.246094l5.078125-2.792969c21.78125-11.980468 35.316406-34.867187 35.316406-59.726562v-23.25h89.394531v23.25c0 24.859375 13.53125 47.746094 35.316407 59.726562zm0 0"/><path d="m41.910156 246.972656c-4.183594 0-7.574218 3.390625-7.574218 7.574219v45.886719c0 4.183594 3.390624 7.574218 7.574218 7.574218h428.179688c4.183594 0 7.574218-3.390624 7.574218-7.574218v-258.523438c0-4.183594-3.390624-7.574218-7.574218-7.574218h-428.179688c-4.183594 0-7.574218 3.390624-7.574218 7.574218v177.398438c0 4.183594 3.390624 7.574218 7.574218 7.574218s7.574219-3.390624 7.574219-7.574218v-169.824219h413.03125v243.375h-201.972656v-30.800781c0-33.019532-23.597657-60.621094-54.8125-66.84375 4.65625-7.59375 7.347656-16.519532 7.347656-26.0625v-22.21875c0-27.5625-22.421875-49.988282-49.984375-49.988282-27.566406 0-49.988281 22.425782-49.988281 49.988282v22.21875c0 9.542968 2.691406 18.46875 7.347656 26.0625-31.214844 6.226562-54.8125 33.828125-54.8125 66.84375v30.800781h-16.15625v-38.3125c0-4.183594-3.390625-7.574219-7.574219-7.574219zm86.34375-100.039062c0-19.210938 15.628906-34.839844 34.839844-34.839844s34.839844 15.628906 34.839844 34.839844v22.21875c0 19.210937-15.628906 34.839844-34.839844 34.839844s-34.839844-15.628907-34.839844-34.839844zm-47.464844 115.125c0-28.972656 23.367188-52.578125 52.242188-52.996094 8.371094 6.320312 18.785156 10.078125 30.0625 10.078125 11.273438 0 21.6875-3.757813 30.058594-10.078125 28.875.417969 52.242187 24.023438 52.242187 52.996094v30.800781h-164.605469zm0 0"/><path d="m361.027344 75.738281h-80.789063c-4.183593 0-7.574219 3.390625-7.574219 7.574219v80.789062c0 4.183594 3.390626 7.574219 7.574219 7.574219h80.789063c4.183594 0 7.574218-3.390625 7.574218-7.574219v-80.789062c0-4.183594-3.390624-7.574219-7.574218-7.574219zm-7.574219 80.789063h-65.640625v-65.640625h65.640625zm0 0"/><path d="m273.671875 205.507812c0 4.179688 3.390625 7.570313 7.574219 7.570313h154.511718c4.179688 0 7.570313-3.390625 7.570313-7.570313 0-4.183593-3.390625-7.574218-7.570313-7.574218h-154.511718c-4.183594 0-7.574219 3.390625-7.574219 7.574218zm0 0"/><path d="m392.332031 171.675781h43.421875c4.183594 0 7.574219-3.390625 7.574219-7.574219 0-4.183593-3.390625-7.574218-7.574219-7.574218h-43.421875c-4.183593 0-7.574219 3.390625-7.574219 7.574218 0 4.183594 3.390626 7.574219 7.574219 7.574219zm0 0"/><path d="m392.332031 131.28125h43.421875c4.183594 0 7.574219-3.390625 7.574219-7.574219 0-4.183593-3.390625-7.574219-7.574219-7.574219h-43.421875c-4.183593 0-7.574219 3.390626-7.574219 7.574219 0 4.183594 3.390626 7.574219 7.574219 7.574219zm0 0"/><path d="m392.332031 90.886719h43.421875c4.183594 0 7.574219-3.390625 7.574219-7.574219s-3.390625-7.574219-7.574219-7.574219h-43.421875c-4.183593 0-7.574219 3.390625-7.574219 7.574219s3.390626 7.574219 7.574219 7.574219zm0 0"/><path d="m435.753906 239.335938h-154.507812c-4.183594 0-7.574219 3.390624-7.574219 7.574218s3.390625 7.574219 7.574219 7.574219h154.511718c4.179688 0 7.570313-3.390625 7.570313-7.574219s-3.390625-7.574218-7.574219-7.574218zm0 0"/></svg>