<svg height="512pt" viewBox="0 -30 512 512" width="512pt" xmlns="http://www.w3.org/2000/svg"><path d="m504.425781 395.867188h-55.035156v-136.082032c0-4.179687-3.394531-7.570312-7.574219-7.570312-4.183594 0-7.574218 3.390625-7.574218 7.570312v55.292969h-57.5625v-172.6875h57.5625v81.988281c0 4.183594 3.390624 7.574219 7.574218 7.574219 4.179688 0 7.574219-3.390625 7.574219-7.574219v-176.410156c0-4.183594-3.394531-7.574219-7.574219-7.574219h-65.136718v-32.820312c0-4.183594-3.390626-7.574219-7.574219-7.574219h-92.90625c-4.183594 0-7.574219 3.390625-7.574219 7.574219v63.117187h-77.761719v-42.921875c0-4.179687-3.390625-7.574219-7.574219-7.574219h-113.105468c-4.179688 0-7.574219 3.394532-7.574219 7.574219v24.910157c0 4.183593 3.394531 7.574218 7.574219 7.574218 4.183594 0 7.574218-3.390625 7.574218-7.574218v-17.335938h97.957032v77.761719h-97.957032v-24.910157c0-4.183593-3.390624-7.574218-7.574218-7.574218-4.179688 0-7.574219 3.390625-7.574219 7.574218v307.667969h-55.035156c-4.183594 0-7.574219 3.394531-7.574219 7.574219v40.398438c0 4.179687 3.390625 7.570312 7.574219 7.570312h496.851562c4.183594 0 7.574219-3.390625 7.574219-7.570312v-40.398438c0-4.179688-3.390625-7.570312-7.574219-7.570312zm-127.746093-31.308594h57.558593v31.308594h-57.558593zm57.5625-34.332032v19.183594h-57.5625v-19.183594zm-57.5625-202.984374v-19.1875h57.558593v19.1875zm57.5625-71.699219v37.363281h-57.5625v-37.363281zm-165.621094 30.296875v26.925781c0 4.183594 3.394531 7.574219 7.574218 7.574219 4.183594 0 7.574219-3.390625 7.574219-7.574219v-97.617187h77.761719v380.714843h-77.761719v-247.371093c0-4.183594-3.390625-7.574219-7.574219-7.574219-4.179687 0-7.574218 3.390625-7.574218 7.574219v166.582031h-77.757813v-229.234375zm-77.757813 310.027344v-31.308594h77.757813v31.308594zm77.757813-46.457032h-77.757813v-19.183594h77.757813zm-92.90625-221.15625v174.703125h-97.957032v-174.703125zm-97.957032 189.851563h97.957032v77.757812h-97.957032zm419.09375 118.15625h-481.703124v-25.246094h481.703124zm0 0"/><path d="m306.492188 380.71875h32.316406c4.183594 0 7.574218-3.390625 7.574218-7.574219v-335.273437c0-4.183594-3.390624-7.574219-7.574218-7.574219h-32.316406c-4.183594 0-7.574219 3.390625-7.574219 7.574219v335.273437c0 4.183594 3.390625 7.574219 7.574219 7.574219zm7.574218-335.273438h17.167969v320.125h-17.167969zm0 0"/></svg>