<svg height="512pt" viewBox="-93 0 512 512" width="512pt" xmlns="http://www.w3.org/2000/svg"><path d="m308.511719 242.367188h-18.144531l3.074218-44.8125c.289063-4.175782-2.863281-7.789063-7.035156-8.078126-4.179688-.28125-7.789062 2.867188-8.074219 7.039063l-3.148437 45.851563h-48.464844l-6.03125-87.859376h60.503906l-.472656 6.589844c-.300781 4.175782 2.839844 7.796875 7.011719 8.097656 4.175781.3125 7.796875-2.839843 8.097656-7.011718l1.054687-14.707032c.003907-.0625 0-.121093.003907-.179687.003906-.121094.003906-.238281.003906-.359375 0-.152344-.003906-.300781-.011719-.453125-.007812-.121094-.015625-.238281-.03125-.351563-.015625-.15625-.039062-.3125-.0625-.464843-.011718-.066407-.015625-.132813-.027344-.195313l-13.128906-66.652344c-.699218-3.550781-3.8125-6.109374-7.433594-6.109374h-50.492187c-3.617187 0-6.730469 2.558593-7.429687 6.109374l-13.128907 66.652344c-.011719.0625-.015625.125-.027343.1875-.023438.152344-.046876.308594-.0625.460938-.015626.117187-.023438.234375-.03125.355468-.007813.148438-.011719.300782-.011719.453126 0 .117187 0 .238281.003906.359374.003906.054688 0 .109376.003906.164063l6.515625 94.914063h-17.640625v-198.4375c0-4.183594-3.390625-7.574219-7.574219-7.574219h-4.542968v-28.78125c0-4.183594-3.390625-7.574219-7.574219-7.574219h-36.355469c-4.183594 0-7.574218 3.390625-7.574218 7.574219v28.78125h-4.542969c-4.183594 0-7.574219 3.390625-7.574219 7.574219v198.4375h-13.128906v-219.644532c0-12.53125-10.195313-22.722656-22.722656-22.722656h-30.296876c-12.527343 0-22.722656 10.191406-22.722656 22.722656v58.066406c0 4.183594 3.390625 7.574219 7.574219 7.574219s7.574219-3.390625 7.574219-7.574219v-8.078124h15.148437v169.65625h-15.148437v-126.234376c0-4.183593-3.390625-7.574218-7.574219-7.574218s-7.574219 3.390625-7.574219 7.574218v126.234376h-11.613281c-9.742187 0-17.671875 7.929687-17.671875 17.671874v20.199219c0 9.742188 7.929688 17.671875 17.671875 17.671875h2.527344v166.121094c0 26.449219 21.519531 47.96875 47.964843 47.96875h189.855469c26.449219 0 47.96875-21.519531 47.96875-47.96875v-95.429688c0-4.183593-3.390625-7.574218-7.574219-7.574218-4.183593 0-7.574218 3.390625-7.574218 7.574218v95.429688c0 18.097656-14.722656 32.820312-32.820313 32.820312h-189.855469c-18.09375 0-32.820312-14.722656-32.820312-32.820312v-166.121094h255.496094v35.34375c0 4.183594 3.390625 7.574219 7.574218 7.574219 4.183594 0 7.574219-3.390625 7.574219-7.574219v-35.34375h2.523438c9.746093 0 17.675781-7.929687 17.675781-17.675781v-20.195313c0-9.742187-7.929688-17.671874-17.675781-17.671874zm-76.578125-154.507813h38.035156l10.144531 51.5h-58.328125zm-98.632813 29.285156h15.148438v61.097657c0 4.183593 3.390625 7.574218 7.574219 7.574218 4.183593 0 7.574218-3.390625 7.574218-7.574218v-61.097657h15.148438v88.867188h-45.445313zm0-65.640625h45.445313v16.15625h-45.445313zm45.445313 31.304688v19.1875h-15.148438v-19.1875zm-45.445313 0h15.148438v19.1875h-15.148438zm12.121094-67.660156h21.207031v21.207031h-21.207031zm-12.121094 206.011718h45.445313v21.207032h-45.445313zm-88.867187-198.4375c0-4.175781 3.398437-7.574218 7.574218-7.574218h30.296876c4.175781 0 7.574218 3.398437 7.574218 7.574218v34.839844h-45.445312zm30.296875 49.988282h15.148437v169.65625h-15.148437zm236.308593 207.527343c0 1.390625-1.132812 2.523438-2.527343 2.523438h-290.839844c-1.390625 0-2.523437-1.132813-2.523437-2.523438v-20.199219c0-1.390624 1.132812-2.523437 2.523437-2.523437h290.839844c1.390625 0 2.523437 1.132813 2.523437 2.523437v20.199219zm0 0"/></svg>