<svg height="512pt" viewBox="0 0 512 512" width="512pt" xmlns="http://www.w3.org/2000/svg"><path d="m466.191406 410.421875-20.667968-7.175781c11.570312-9.164063 19.011718-23.320313 19.011718-39.191406v-15.148438c0-27.5625-22.425781-49.988281-49.988281-49.988281s-49.988281 22.425781-49.988281 49.988281v15.148438c0 15.871093 7.445312 30.027343 19.015625 39.191406l-20.667969 7.175781c-10.695312 3.710937-20.097656 9.886719-27.644531 18.066406-7.429688-8.019531-16.820313-14.316406-27.617188-18.066406l-20.667969-7.175781c11.570313-9.164063 19.011719-23.320313 19.011719-39.191406v-15.148438c0-27.5625-22.425781-49.988281-49.988281-49.988281s-49.988281 22.425781-49.988281 49.988281v15.148438c0 15.871093 7.445312 30.027343 19.011719 39.191406l-20.667969 7.175781c-10.796875 3.75-20.1875 10.046875-27.617188 18.066406-7.546875-8.179687-16.949219-14.355469-27.640625-18.066406l-20.671875-7.175781c11.570313-9.164063 19.011719-23.320313 19.011719-39.191406v-15.148438c0-27.5625-22.421875-49.988281-49.988281-49.988281-27.5625 0-49.984375 22.425781-49.984375 49.988281v15.148438c0 15.871093 7.441406 30.027343 19.011718 39.191406l-20.667968 7.175781c-27.398438 9.511719-45.808594 35.390625-45.808594 64.394531v29.609375c0 4.183594 3.390625 7.574219 7.574219 7.574219h241.324219c4.183593 0 7.574218-3.390625 7.574218-7.574219 0-4.183593-3.390625-7.574219-7.574218-7.574219h-75.203126v-22.035156c0-22.558594 14.320313-42.683594 35.628907-50.085937l30.785156-10.6875h31.78125l30.785156 10.6875c21.308594 7.402343 35.628907 27.527343 35.628907 50.085937v22.035156h-54.03125c-4.179688 0-7.574219 3.390626-7.574219 7.574219 0 4.183594 3.394531 7.574219 7.574219 7.574219h220.152343c4.183594 0 7.574219-3.390625 7.574219-7.574219v-29.609375c0-29.003906-18.410156-54.882812-45.808594-64.394531zm-403.582031-61.515625c0-19.210938 15.628906-34.839844 34.839844-34.839844 19.210937 0 34.839843 15.628906 34.839843 34.839844v15.148438c0 19.210937-15.628906 34.839843-34.839843 34.839843-19.210938 0-34.839844-15.628906-34.839844-34.839843zm-47.460937 147.945312v-22.035156c0-22.558594 14.316406-42.6875 35.628906-50.085937l30.785156-10.6875h31.78125l30.785156 10.691406c9.253906 3.210937 17.265625 8.792969 23.429688 16.257813-5.769532 10.082031-9.011719 21.675781-9.011719 33.824218v22.035156zm206.011718-147.945312c0-19.210938 15.628906-34.839844 34.839844-34.839844s34.839844 15.628906 34.839844 34.839844v15.148438c0 19.210937-15.628906 34.839843-34.839844 34.839843s-34.839844-15.628906-34.839844-34.839843zm158.546875 0c0-19.210938 15.628907-34.839844 34.839844-34.839844s34.839844 15.628906 34.839844 34.839844v15.148438c0 19.210937-15.628907 34.839843-34.839844 34.839843s-34.839844-15.628906-34.839844-34.839843zm117.144531 147.945312h-143.398437v-22.035156c0-12.148437-3.242187-23.746094-9.011719-33.824218 6.164063-7.464844 14.175782-13.046876 23.429688-16.261719l30.785156-10.6875h31.78125l30.785156 10.6875c21.3125 7.398437 35.628906 27.527343 35.628906 50.085937zm0 0"/><path d="m7.574219 263.574219h38.710937c4.183594 0 7.574219-3.390625 7.574219-7.574219s-3.390625-7.574219-7.574219-7.574219h-31.136718v-29.789062c0-28.976563 23.367187-52.582031 52.242187-53 8.371094 6.324219 18.785156 10.078125 30.058594 10.078125 11.277343 0 21.691406-3.753906 30.0625-10.078125 28.878906.417969 52.242187 24.023437 52.242187 53v29.789062h-97.871094c-4.183593 0-7.574218 3.390625-7.574218 7.574219s3.390625 7.574219 7.574218 7.574219h105.445313c4.183594 0 7.574219-3.390625 7.574219-7.574219v-37.363281c0-33.019531-23.597656-60.621094-54.8125-66.847657 4.65625-7.59375 7.347656-16.515624 7.347656-26.0625v-22.214843c0-27.5625-22.421875-49.988281-49.988281-49.988281-27.5625 0-49.984375 22.425781-49.984375 49.988281v22.214843c0 9.546876 2.691406 18.46875 7.347656 26.0625-31.214844 6.226563-54.8125 33.828126-54.8125 66.847657v37.363281c0 4.183594 3.390625 7.574219 7.574219 7.574219zm55.035156-160.0625c0-19.210938 15.628906-34.839844 34.839844-34.839844 19.210937 0 34.839843 15.628906 34.839843 34.839844v22.214843c0 19.210938-15.628906 34.839844-34.839843 34.839844-19.210938 0-34.839844-15.628906-34.839844-34.839844zm0 0"/><path d="m504.425781 0h-210.726562c-4.179688 0-7.570313 3.390625-7.570313 7.574219 0 4.183593 3.390625 7.574219 7.570313 7.574219h203.152343v198.941406h-269.632812v-198.941406h31.304688c4.183593 0 7.574218-3.390626 7.574218-7.574219 0-4.183594-3.390625-7.574219-7.574218-7.574219h-38.878907c-4.183593 0-7.574219 3.390625-7.574219 7.574219v248.425781c0 4.183594 3.390626 7.574219 7.574219 7.574219h284.78125c4.183594 0 7.574219-3.390625 7.574219-7.574219v-248.425781c0-4.183594-3.390625-7.574219-7.574219-7.574219zm-277.207031 248.425781v-19.1875h269.632812v19.1875zm0 0"/><path d="m370.113281 59.582031h94.925781c4.183594 0 7.574219-3.390625 7.574219-7.574219 0-4.183593-3.390625-7.574218-7.574219-7.574218h-94.925781c-4.183593 0-7.574219 3.390625-7.574219 7.574218 0 4.183594 3.390626 7.574219 7.574219 7.574219zm0 0"/><path d="m370.113281 112.09375h94.925781c4.183594 0 7.574219-3.390625 7.574219-7.574219 0-4.179687-3.390625-7.574219-7.574219-7.574219h-94.925781c-4.183593 0-7.574219 3.394532-7.574219 7.574219 0 4.183594 3.390626 7.574219 7.574219 7.574219zm0 0"/><path d="m251.457031 155.015625c0 4.179687 3.390625 7.574219 7.574219 7.574219h206.011719c4.183593 0 7.574219-3.394532 7.574219-7.574219 0-4.183594-3.390626-7.574219-7.574219-7.574219h-206.011719c-4.183594 0-7.574219 3.386719-7.574219 7.574219zm0 0"/><path d="m295.890625 30.296875c-26.449219 0-47.96875 21.519531-47.96875 47.96875s21.519531 47.964844 47.96875 47.964844 47.96875-21.515625 47.96875-47.964844-21.519531-47.96875-47.96875-47.96875zm0 80.789063c-18.097656 0-32.820313-14.722657-32.820313-32.820313 0-18.101563 14.722657-32.824219 32.820313-32.824219s32.820313 14.722656 32.820313 32.824219c0 18.097656-14.722657 32.820313-32.820313 32.820313zm0 0"/></svg>