<svg height="512pt" viewBox="0 -4 512 512" width="512pt" xmlns="http://www.w3.org/2000/svg"><path d="m461.773438 392.03125-49.75-13.5625v-22.898438c20.445312-11.308593 34.839843-32.246093 37.050781-56.652343h12.9375c9.746093 0 17.671875-7.925781 17.671875-17.671875v-18.179688c0-9.742187-7.925782-17.671875-17.671875-17.671875h-12.625v-36.859375c0-15.3125-12.457031-27.769531-27.769531-27.769531-1.191407 0-2.355469.121094-3.484376.347656-3.1875-11.820312-14-20.546875-26.8125-20.546875h-28.273437c-32.019531 0-58.070313 26.046875-58.070313 58.066406v26.761719h-12.621093c-9.746094 0-17.671875 7.929688-17.671875 17.671875v18.179688c0 9.746094 7.925781 17.671875 17.671875 17.671875h12.933593c2.210938 24.40625 16.609376 45.34375 37.054688 56.652343v22.910157l-48.910156 13.476562c-29.472656 8.117188-50.054688 35.140625-50.054688 65.710938v39.6875c0 4.183593 3.390625 7.574219 7.570313 7.574219h64.042969c4.183593 0 7.574218-3.390626 7.574218-7.574219 0-4.183594-3.390625-7.574219-7.574218-7.574219h-56.46875v-32.113281c0-23.777344 16.011718-44.792969 38.933593-51.105469l50.503907-13.914062 24.191406 21.5c1.433594 1.277343 3.234375 1.914062 5.03125 1.914062 1.800781 0 3.597656-.636719 5.03125-1.914062l24.199218-21.507813 51.375 14.007813c23 6.273437 39.0625 27.308593 39.0625 51.152343v31.984375h-146.261718c-4.183594 0-7.574219 3.390625-7.574219 7.574219 0 4.179687 3.390625 7.574219 7.574219 7.574219h153.835937c4.183594 0 7.574219-3.394532 7.574219-7.574219v-39.558594c0-30.65625-20.652344-57.703125-50.226562-65.769531zm2.761718-128.960938v18.175782c0 1.394531-1.132812 2.527344-2.523437 2.527344h-12.625v-23.226563h12.625c1.390625-.003906 2.523437 1.128906 2.523437 2.523437zm-42.917968-67.15625c6.960937 0 12.621093 5.660157 12.621093 12.621094v36.859375h-2.523437c-6.960938 0-12.621094-5.660156-12.621094-12.621093v-34.335938c0-1.390625 1.132812-2.523438 2.523438-2.523438zm-101.492188 22.722657c0-23.667969 19.253906-42.921875 42.921875-42.921875h28.273437c6.960938 0 12.625 5.664062 12.625 12.625v44.433594c0 6.960937-5.664062 12.621093-12.625 12.621093h-71.195312zm-30.296875 62.609375v-18.179688c0-1.390625 1.132813-2.523437 2.527344-2.523437h12.621093v23.226562h-12.621093c-1.390625 0-2.527344-1.128906-2.527344-2.523437zm30.296875 11.109375v-31.8125h71.195312c7.953126 0 15.128907-3.363281 20.199219-8.738281 5.066407 5.375 12.242188 8.738281 20.195313 8.738281h2.523437v31.8125c0 31.460937-25.59375 57.054687-57.054687 57.054687-31.460938 0-57.058594-25.59375-57.058594-57.054687zm57.058594 106-19.691406-17.503907v-19.042968c6.265624 1.777344 12.863281 2.75 19.691406 2.75s13.425781-.972656 19.691406-2.75v19.042968zm0 0"/><path d="m7.574219 166.246094c4.183593 0 7.574219-3.390625 7.574219-7.570313v-110.707031c0-18.097656 14.722656-32.820312 32.820312-32.820312h195.914062c18.097657 0 32.820313 14.722656 32.820313 32.820312v53.144531c0 4.183594 3.390625 7.574219 7.574219 7.574219s7.574218-3.390625 7.574218-7.574219v-53.144531c0-26.449219-21.519531-47.96875-47.96875-47.96875h-195.914062c-26.449219 0-47.96875 21.519531-47.96875 47.96875v110.707031c0 4.183594 3.390625 7.570313 7.574219 7.570313zm0 0"/><path d="m291.851562 194.398438v-57.898438c0-4.183594-3.390624-7.574219-7.574218-7.574219s-7.574219 3.390625-7.574219 7.574219v57.898438c0 18.097656-14.722656 32.820312-32.820313 32.820312h-83.820312c-4.183594 0-7.574219 3.390625-7.574219 7.574219v32.207031l-37.5625-37.5625c-1.421875-1.421875-3.347656-2.21875-5.355469-2.21875h-61.601562c-18.097656 0-32.820312-14.722656-32.820312-32.820312 0-4.183594-3.390626-7.574219-7.574219-7.574219-4.183594 0-7.574219 3.390625-7.574219 7.574219 0 26.449218 21.519531 47.96875 47.96875 47.96875h58.464844l48.273437 48.273437c1.449219 1.449219 3.386719 2.21875 5.355469 2.21875.976562 0 1.960938-.1875 2.898438-.578125 2.828124-1.171875 4.675781-3.933594 4.675781-6.996094v-42.917968h76.246093c26.449219 0 47.96875-21.519532 47.96875-47.96875zm0 0"/><path d="m136.910156 213.078125h18.027344c10.023438 0 18.179688-8.152344 18.179688-18.175781v-19.792969l2.136718-22.660156c.609375-6.460938 3.773438-12.4375 8.675782-16.390625 14.355468-11.574219 22.589843-28.773438 22.589843-47.191406 0-33.410157-27.183593-60.59375-60.59375-60.59375-.289062 0-.570312.003906-.859375.007812-15.71875.21875-30.558594 6.484375-41.792968 17.636719-11.234376 11.15625-17.601563 25.953125-17.925782 41.667969-.394531 18.886718 7.808594 36.53125 22.5 48.414062 4.953125 4.003906 8.140625 10 8.75 16.449219l2.136719 22.660156v19.792969c0 10.023437 8.15625 18.175781 18.175781 18.175781zm21.058594-18.175781c0 1.671875-1.359375 3.03125-3.03125 3.03125h-18.027344c-1.671875 0-3.027344-1.359375-3.027344-3.03125v-12.574219h24.082032v12.574219zm-57.476562-107.003906c.5-24.183594 20.589843-44.132813 44.78125-44.46875l.652343-.003907c25.054688 0 45.441407 20.382813 45.441407 45.441407 0 13.816406-6.175782 26.71875-16.945313 35.398437-8.066406 6.503906-13.257813 16.253906-14.25 26.761719l-1.523437 16.15625h-25.449219l-1.523438-16.15625c-.988281-10.484375-6.203125-20.253906-14.304687-26.808594-11.019532-8.914062-17.175782-22.152344-16.878906-36.320312zm0 0"/><path d="m45.378906 77.304688 22.21875 8.078124c.855469.308594 1.726563.457032 2.585938.457032 3.097656 0 6-1.910156 7.121094-4.988282 1.429687-3.929687-.601563-8.277343-4.53125-9.707031l-22.214844-8.078125c-3.933594-1.425781-8.277344.601563-9.707032 4.53125-1.429687 3.929688.597657 8.273438 4.527344 9.707032zm0 0"/><path d="m40.75 145.191406c1.027344 3.222656 4.007812 5.28125 7.214844 5.28125.761718 0 1.535156-.117187 2.300781-.359375l22.214844-7.070312c3.988281-1.269531 6.191406-5.527344 4.921875-9.515625-1.265625-3.984375-5.527344-6.1875-9.515625-4.917969l-22.214844 7.070313c-3.984375 1.265624-6.191406 5.527343-4.921875 9.511718zm0 0"/><path d="m47.96875 114.367188h22.214844c4.183594 0 7.574218-3.390626 7.574218-7.574219 0-4.183594-3.390624-7.574219-7.574218-7.574219h-22.214844c-4.183594 0-7.574219 3.390625-7.574219 7.574219 0 4.183593 3.390625 7.574219 7.574219 7.574219zm0 0"/><path d="m219.644531 85.839844c.859375 0 1.734375-.148438 2.589844-.457032l22.214844-8.078124c3.933593-1.433594 5.960937-5.777344 4.53125-9.707032-1.429688-3.933594-5.769531-5.964844-9.707031-4.53125l-22.214844 8.078125c-3.933594 1.429688-5.960938 5.777344-4.53125 9.707031 1.117187 3.078126 4.023437 4.988282 7.117187 4.988282zm0 0"/><path d="m217.347656 143.042969 22.21875 7.070312c.761719.242188 1.535156.359375 2.296875.359375 3.210938 0 6.191407-2.058594 7.214844-5.28125 1.269531-3.984375-.933594-8.246094-4.917969-9.511718l-22.21875-7.070313c-3.988281-1.269531-8.246094.933594-9.511718 4.917969-1.269532 3.988281.933593 8.246094 4.917968 9.515625zm0 0"/><path d="m219.644531 114.367188h22.21875c4.183594 0 7.574219-3.390626 7.574219-7.574219 0-4.183594-3.390625-7.574219-7.574219-7.574219h-22.21875c-4.183593 0-7.574219 3.390625-7.574219 7.574219 0 4.183593 3.390626 7.574219 7.574219 7.574219zm0 0"/></svg>