<svg height="512pt" viewBox="0 -31 512 511" width="512pt" xmlns="http://www.w3.org/2000/svg"><path d="m464.03125.5h-14.726562c-4.183594 0-7.574219 3.390625-7.574219 7.574219 0 4.183593 3.390625 7.574219 7.574219 7.574219h14.726562c18.097656 0 32.820312 14.722656 32.820312 32.820312v135.324219c0 18.097656-14.722656 32.820312-32.820312 32.820312h-22.214844c-4.183594 0-7.574218 3.390625-7.574218 7.574219v32.207031l-37.566407-37.5625c-1.417969-1.421875-3.347656-2.21875-5.355469-2.21875h-79.273437v-1.515625c0-26.449218-21.519531-47.96875-47.96875-47.96875h-48.976563v-118.660156c0-18.097656 14.722657-32.820312 32.820313-32.820312h166.183594c4.183593 0 7.574219-3.390626 7.574219-7.574219 0-4.183594-3.390626-7.574219-7.574219-7.574219h-166.183594c-26.449219 0-47.96875 21.519531-47.96875 47.96875v118.660156h-151.984375c-26.449219 0-47.96875 21.519532-47.96875 47.96875v24.613282c0 4.183593 3.390625 7.574218 7.574219 7.574218 4.183593 0 7.574219-3.390625 7.574219-7.574218v-24.613282c0-18.101562 14.722656-32.824218 32.820312-32.824218h216.109375c18.097656 0 32.820313 14.722656 32.820313 32.824218v135.320313c0 18.097656-14.722657 32.820312-32.820313 32.820312h-143.398437c-2.007813 0-3.9375.796875-5.355469 2.21875l-37.566407 37.5625v-32.207031c0-4.183594-3.390624-7.574219-7.574218-7.574219h-22.214844c-18.097656 0-32.820312-14.722656-32.820312-32.820312v-75.109375c0-4.179688-3.390626-7.574219-7.574219-7.574219-4.183594 0-7.574219 3.390625-7.574219 7.574219v75.109375c0 26.449219 21.519531 47.96875 47.96875 47.96875h14.640625v42.917969c0 3.0625 1.847656 5.824218 4.675781 6.996093.9375.390625 1.921875.578125 2.898438.578125 1.972656 0 3.910156-.769531 5.355468-2.21875l48.277344-48.273437h140.261719c26.449219 0 47.96875-21.519531 47.96875-47.96875v-118.660157h76.136719l48.277344 48.277344c1.445312 1.449219 3.382812 2.21875 5.355468 2.21875.976563 0 1.960938-.191406 2.898438-.578125 2.828125-1.171875 4.675781-3.933593 4.675781-6.996093v-42.921876h14.640625c26.449219 0 47.96875-21.519531 47.96875-47.96875v-135.320312c0-26.449219-21.519531-47.96875-47.96875-47.96875zm0 0"/><path d="m401.421875 182.277344c4.179687 0 7.570313-3.390625 7.570313-7.574219v-77.761719c0-29.230468-23.78125-53.015625-53.015626-53.015625-29.234374 0-53.019531 23.785157-53.019531 53.015625v77.761719c0 4.183594 3.390625 7.574219 7.574219 7.574219s7.574219-3.390625 7.574219-7.574219v-54.027344h75.742187v54.027344c0 4.183594 3.390625 7.574219 7.574219 7.574219zm-83.316406-76.75v-8.585938c0-20.882812 16.988281-37.871094 37.871093-37.871094 20.882813 0 37.871094 16.988282 37.871094 37.871094v8.585938zm0 0"/><path d="m102.195312 348.703125c1.480469 1.480469 3.417969 2.21875 5.355469 2.21875s3.878907-.738281 5.355469-2.21875l14.367188-14.367187c8.289062 5.375 18.160156 8.507812 28.75 8.507812 29.234374 0 53.019531-23.785156 53.019531-53.019531v-32.3125c0-29.234375-23.785157-53.019531-53.019531-53.019531-29.234376 0-53.015626 23.785156-53.015626 53.019531v32.3125c0 13.179687 4.84375 25.242187 12.832032 34.527343l-13.644532 13.640626c-2.957031 2.957031-2.957031 7.753906 0 10.710937zm15.957032-58.878906v-32.3125c0-20.882813 16.988281-37.871094 37.871094-37.871094 20.882812 0 37.871093 16.988281 37.871093 37.871094v32.3125c0 20.882812-16.988281 37.871093-37.871093 37.871093-6.390626 0-12.414063-1.597656-17.703126-4.40625l8.921876-8.917968c2.957031-2.960938 2.957031-7.753906 0-10.714844-2.960938-2.957031-7.753907-2.957031-10.710938 0l-9.949219 9.949219c-5.265625-6.503907-8.429687-14.777344-8.429687-23.78125zm0 0"/></svg>