<svg height="512pt" viewBox="0 0 512 512" width="512pt" xmlns="http://www.w3.org/2000/svg"><path d="m239.335938 38.671875c0-4.183594-3.390626-7.574219-7.574219-7.574219h-98c-6.730469 0-12.941407 3.65625-16.210938 9.539063-.058593.109375-.117187.21875-.171875.328125l-42.714844 86.683594-11.074218-30.515626c-.082032-.234374-.179688-.464843-.289063-.691406-3.066406-6.390625-9.625-10.519531-16.714843-10.519531h-10.734376c-4.183593 0-7.574218 3.390625-7.574218 7.574219s3.390625 7.574218 7.574218 7.574218h10.734376c1.207031 0 2.328124.65625 2.929687 1.6875l16.972656 46.761719c1.039063 2.851563 3.675781 4.8125 6.707031 4.976563.140626.007812.277344.011718.414063.011718 2.871094 0 5.511719-1.628906 6.792969-4.226562l50.460937-102.40625c.613281-1.011719 1.710938-1.632812 2.898438-1.632812h98c4.183593 0 7.574219-3.390626 7.574219-7.570313zm0 0"/><path d="m205.8125 65.628906c-2.957031-2.957031-7.753906-2.957031-10.710938 0l-19.890624 19.890625-19.890626-19.890625c-2.957031-2.957031-7.753906-2.957031-10.710937 0-2.957031 2.960938-2.957031 7.753906 0 10.710938l19.890625 19.890625-19.890625 19.890625c-2.957031 2.960937-2.957031 7.753906 0 10.714844 1.480469 1.476562 3.417969 2.21875 5.355469 2.21875s3.878906-.742188 5.355468-2.21875l19.890626-19.890626 19.890624 19.890626c1.480469 1.476562 3.417969 2.21875 5.359376 2.21875 1.9375 0 3.875-.742188 5.355468-2.21875 2.957032-2.960938 2.957032-7.753907 0-10.714844l-19.890625-19.890625 19.890625-19.890625c2.953125-2.957032 2.953125-7.75-.003906-10.710938zm0 0"/><path d="m35.851562 205.003906h154.507813c4.183594 0 7.574219-3.394531 7.574219-7.574218 0-4.183594-3.390625-7.574219-7.574219-7.574219h-154.507813c-4.183593 0-7.574218 3.390625-7.574218 7.574219 0 4.179687 3.390625 7.574218 7.574218 7.574218zm0 0"/><path d="m35.851562 245.394531h154.507813c4.183594 0 7.574219-3.390625 7.574219-7.574219 0-4.179687-3.390625-7.574218-7.574219-7.574218h-154.507813c-4.183593 0-7.574218 3.394531-7.574218 7.574218 0 4.1875 3.390625 7.574219 7.574218 7.574219zm0 0"/><path d="m35.851562 285.789062h154.507813c4.183594 0 7.574219-3.390624 7.574219-7.570312 0-4.183594-3.390625-7.574219-7.574219-7.574219h-154.507813c-4.183593 0-7.574218 3.390625-7.574218 7.574219 0 4.179688 3.390625 7.570312 7.574218 7.570312zm0 0"/><path d="m35.851562 326.183594h93.914063c4.183594 0 7.574219-3.390625 7.574219-7.574219 0-4.179687-3.390625-7.574219-7.574219-7.574219h-93.914063c-4.183593 0-7.574218 3.394532-7.574218 7.574219 0 4.1875 3.390625 7.574219 7.574218 7.574219zm0 0"/><path d="m484.230469 112.09375h-46.960938c-4.183593 0-7.574219 3.390625-7.574219 7.574219 0 4.183593 3.390626 7.574219 7.574219 7.574219h46.960938c6.960937 0 12.621093 5.664062 12.621093 12.625v344.363281c0 6.960937-5.664062 12.621093-12.621093 12.621093h-235.300781c-6.960938 0-12.621094-5.664062-12.621094-12.621093v-344.363281c0-6.960938 5.664062-12.625 12.621094-12.625h152.996093c4.183594 0 7.574219-3.390626 7.574219-7.574219 0-4.183594-3.390625-7.574219-7.574219-7.574219h-55.542969v-104.519531c0-4.183594-3.390624-7.574219-7.574218-7.574219h-331.234375c-4.183594 0-7.574219 3.390625-7.574219 7.574219v61.140625c0 4.179687 3.390625 7.570312 7.574219 7.570312 4.183593 0 7.574219-3.390625 7.574219-7.570312v-53.566406h316.085937v96.945312h-82.304687c-15.3125 0-27.769532 12.460938-27.769532 27.773438v264.078124h-206.011718v-299.929687c0-4.183594-3.390626-7.574219-7.574219-7.574219-4.183594 0-7.574219 3.390625-7.574219 7.574219v307.503906c0 4.183594 3.390625 7.574219 7.574219 7.574219h213.585937v65.136719c0 15.3125 12.457032 27.769531 27.769532 27.769531h235.300781c15.3125 0 27.769531-12.460938 27.769531-27.769531v-344.363281c0-15.3125-12.457031-27.773438-27.769531-27.773438zm0 0"/><path d="m480.695312 154.003906c0-4.183594-3.390624-7.574218-7.574218-7.574218h-213.082032c-4.183593 0-7.574218 3.390624-7.574218 7.574218v74.730469c0 4.183594 3.390625 7.574219 7.574218 7.574219h40.941407c4.183593 0 7.574219-3.390625 7.574219-7.574219s-3.390626-7.574219-7.574219-7.574219h-33.367188v-59.582031h197.933594v59.582031h-129.074219c-4.183594 0-7.574218 3.390625-7.574218 7.574219s3.390624 7.574219 7.574218 7.574219h136.648438c4.183594 0 7.574218-3.390625 7.574218-7.574219zm0 0"/><path d="m358.5 260.039062c0-4.183593-3.390625-7.574218-7.574219-7.574218h-90.886719c-4.183593 0-7.574218 3.390625-7.574218 7.574218v90.886719c0 4.183594 3.390625 7.574219 7.574218 7.574219h90.886719c4.183594 0 7.574219-3.390625 7.574219-7.574219zm-15.148438 83.3125h-75.738281v-75.738281h75.738281zm0 0"/><path d="m480.695312 260.039062c0-4.183593-3.390624-7.574218-7.574218-7.574218h-90.890625c-4.179688 0-7.574219 3.390625-7.574219 7.574218v90.886719c0 4.183594 3.394531 7.574219 7.574219 7.574219h90.890625c4.183594 0 7.574218-3.390625 7.574218-7.574219zm-15.148437 83.3125h-75.742187v-75.738281h75.742187zm0 0"/><path d="m350.925781 374.660156h-90.886719c-4.183593 0-7.574218 3.390625-7.574218 7.574219v90.886719c0 4.183594 3.390625 7.574218 7.574218 7.574218h90.886719c4.183594 0 7.574219-3.390624 7.574219-7.574218v-90.886719c0-4.183594-3.390625-7.574219-7.574219-7.574219zm-7.574219 90.886719h-75.738281v-75.742187h75.738281zm0 0"/><path d="m473.121094 374.660156h-90.890625c-4.179688 0-7.574219 3.390625-7.574219 7.574219v90.886719c0 4.183594 3.394531 7.574218 7.574219 7.574218h90.890625c4.183594 0 7.574218-3.390624 7.574218-7.574218v-90.886719c0-4.183594-3.390624-7.574219-7.574218-7.574219zm-7.574219 90.886719h-75.742187v-75.742187h75.742187zm0 0"/><path d="m285.789062 313.058594h12.121094v12.117187c0 4.183594 3.390625 7.574219 7.574219 7.574219 4.179687 0 7.574219-3.390625 7.574219-7.574219v-12.117187h12.117187c4.183594 0 7.574219-3.394532 7.574219-7.574219 0-4.183594-3.390625-7.574219-7.574219-7.574219h-12.117187v-12.121094c0-4.179687-3.394532-7.570312-7.574219-7.570312-4.183594 0-7.574219 3.390625-7.574219 7.570312v12.121094h-12.121094c-4.179687 0-7.570312 3.390625-7.570312 7.574219s3.390625 7.574219 7.570312 7.574219zm0 0"/><path d="m407.984375 447.875h39.382813c4.183593 0 7.574218-3.390625 7.574218-7.574219 0-4.183593-3.390625-7.574219-7.574218-7.574219h-39.382813c-4.183594 0-7.574219 3.390626-7.574219 7.574219 0 4.183594 3.390625 7.574219 7.574219 7.574219zm0 0"/><path d="m407.984375 422.628906h39.382813c4.183593 0 7.574218-3.394531 7.574218-7.574218 0-4.183594-3.390625-7.574219-7.574218-7.574219h-39.382813c-4.183594 0-7.574219 3.390625-7.574219 7.574219 0 4.179687 3.390625 7.574218 7.574219 7.574218zm0 0"/><path d="m408.394531 324.765625c1.480469 1.476563 3.417969 2.214844 5.359375 2.214844 1.9375 0 3.875-.738281 5.351563-2.21875l8.570312-8.566407 8.570313 8.566407c1.476562 1.480469 3.414062 2.21875 5.355468 2.21875 1.9375 0 3.875-.738281 5.355469-2.214844 2.957031-2.960937 2.957031-7.753906 0-10.710937l-8.570312-8.570313 8.570312-8.570313c2.957031-2.960937 2.957031-7.753906 0-10.710937-2.960937-2.957031-7.753906-2.960937-10.710937 0l-8.570313 8.570313-8.570312-8.570313c-2.957031-2.960937-7.75-2.957031-10.710938 0-2.957031 2.957031-2.957031 7.75 0 10.710937l8.570313 8.570313-8.570313 8.570313c-2.957031 2.957031-2.957031 7.753906 0 10.710937zm0 0"/><path d="m285.789062 435.25h39.386719c4.183594 0 7.574219-3.390625 7.574219-7.574219 0-4.183593-3.390625-7.574219-7.574219-7.574219h-39.386719c-4.179687 0-7.570312 3.390626-7.570312 7.574219 0 4.183594 3.390625 7.574219 7.570312 7.574219zm0 0"/><path d="m315.582031 405.460938c0 5.578124-4.523437 10.097656-10.097656 10.097656-5.578125 0-10.101563-4.519532-10.101563-10.097656 0-5.578126 4.523438-10.101563 10.101563-10.101563 5.574219 0 10.097656 4.523437 10.097656 10.101563zm0 0"/><path d="m315.582031 449.894531c0 5.574219-4.523437 10.097657-10.097656 10.097657-5.578125 0-10.101563-4.523438-10.101563-10.097657 0-5.578125 4.523438-10.101562 10.101563-10.101562 5.574219 0 10.097656 4.523437 10.097656 10.101562zm0 0"/></svg>