<svg height="512pt" viewBox="0 -4 512 512" width="512pt" xmlns="http://www.w3.org/2000/svg"><path d="m502.074219 85.105469c-6.304688-5.289063-14.566407-7.507813-22.675781-6.070313l-245.398438 43.355469c-13.289062 2.347656-22.9375 13.851563-22.9375 27.347656v201.34375c-8.253906-2.621093-16.957031-3.867187-25.652344-3.667969-20.167968.488282-39.175781 8.707032-53.527344 23.144532-14.347656 14.441406-22.445312 33.5-22.804687 53.671875-.382813 21.394531 7.71875 41.519531 22.804687 56.664062 14.820313 14.875 34.464844 23.027344 55.429688 23.027344.378906 0 .757812 0 1.136719-.007813 42.539062-.597656 77.144531-36.128906 77.144531-79.207031v-158.988281c0-4.179688-3.390625-7.574219-7.574219-7.574219-4.183593 0-7.574219 3.394531-7.574219 7.574219v158.988281c0 34.839844-27.90625 63.578125-62.207031 64.058594-.308593.003906-.609375.007813-.917969.007813-16.910156 0-32.753906-6.574219-44.707031-18.570313-12.167969-12.214844-18.699219-28.445313-18.390625-45.699219.59375-33.355468 28.207032-61.140625 61.550782-61.945312 10.375-.253906 20.277343 1.941406 29.5 6.503906 2.347656 1.164062 5.128906 1.027344 7.355468-.351562 2.226563-1.382813 3.578125-3.816407 3.578125-6.4375v-212.535157c0-6.132812 4.386719-11.363281 10.429688-12.429687l245.394531-43.355469c3.691406-.652344 7.445312.355469 10.308594 2.757813 2.867187 2.402343 4.511718 5.929687 4.511718 9.671874v83.429688c0 4.183594 3.390626 7.574219 7.574219 7.574219 4.183594 0 7.574219-3.390625 7.574219-7.574219v-83.429688c0-8.230468-3.617188-15.988281-9.925781-21.277343zm0 0"/><path d="m504.425781 217.625c-4.183593 0-7.574219 3.390625-7.574219 7.574219v149.015625c0 34.839844-27.90625 63.578125-62.207031 64.058594-.304687.003906-.609375.007812-.917969.007812-16.90625 0-32.753906-6.574219-44.707031-18.574219-12.167969-12.210937-18.699219-28.441406-18.390625-45.699219.597656-33.351562 28.210938-61.136718 61.554688-61.941406 10.359375-.253906 20.277344 1.941406 29.496094 6.503906 2.347656 1.160157 5.128906 1.027344 7.355468-.351562 2.226563-1.382812 3.578125-3.816406 3.578125-6.4375v-159.90625c0-2.242188-.988281-4.363281-2.703125-5.804688-1.71875-1.4375-3.980468-2.042968-6.1875-1.65625l-207.019531 36.578126c-3.617187.636718-6.257813 3.78125-6.257813 7.457031v41.882812c0 4.183594 3.390626 7.574219 7.574219 7.574219 4.183594 0 7.574219-3.390625 7.574219-7.574219v-35.527343l191.875-33.902344v139.683594c-8.253906-2.617188-16.949219-3.878907-25.648438-3.664063-20.167968.484375-39.179687 8.703125-53.527343 23.144531-14.347657 14.4375-22.449219 33.5-22.808594 53.671875-.382813 21.390625 7.714844 41.515625 22.804687 56.660157 14.820313 14.878906 34.464844 23.03125 55.433594 23.03125.375 0 .753906-.003907 1.132813-.007813 42.539062-.597656 77.144531-36.128906 77.144531-79.207031v-149.015625c0-4.183594-3.390625-7.574219-7.574219-7.574219zm0 0"/><path d="m156.527344 227.722656v-52.636718c0-4.183594-3.390625-7.574219-7.574219-7.574219-4.179687 0-7.570313 3.390625-7.570313 7.574219v52.636718c0 34.804688-28.316406 63.117188-63.117187 63.117188s-63.117187-28.3125-63.117187-63.117188c0-34.800781 28.316406-63.113281 63.117187-63.113281 9.796875 0 19.199219 2.191406 27.945313 6.519531 2.347656 1.164063 5.128906 1.03125 7.355468-.351562 2.226563-1.382813 3.578125-3.816406 3.578125-6.433594v-131.945312l24.238281-12.429688v119.519531c0 4.183594 3.390626 7.574219 7.574219 7.574219 4.183594 0 7.574219-3.390625 7.574219-7.574219v-131.914062c0-2.640625-1.375-5.085938-3.625-6.464844-2.253906-1.375-5.058594-1.476563-7.40625-.273437l-39.386719 20.195312c-2.527343 1.296875-4.117187 3.898438-4.117187 6.738281v125.355469c-7.625-2.4375-15.566406-3.664062-23.730469-3.664062-43.15625 0-78.265625 35.109374-78.265625 78.261718 0 43.15625 35.109375 78.265625 78.265625 78.265625 43.152344 0 78.261719-35.109375 78.261719-78.265625zm0 0"/></svg>