<svg height="512pt" viewBox="0 -34 512 512" width="512pt" xmlns="http://www.w3.org/2000/svg"><path d="m504.425781 262.3125c4.183594 0 7.574219-3.390625 7.574219-7.574219v-227.976562c0-4.183594-3.390625-7.574219-7.574219-7.574219h-23.730469v-11.613281c0-4.183594-3.390624-7.574219-7.574218-7.574219h-156.671875c-18.667969 0-36.726563 7.785156-49.554688 21.359375l-10.894531 11.539063-10.894531-11.542969c-12.828125-13.570313-30.890625-21.355469-49.554688-21.355469h-156.671875c-4.183594 0-7.574218 3.390625-7.574218 7.574219v11.613281h-23.730469c-4.183594 0-7.574219 3.390625-7.574219 7.574219v337.292969c0 4.183593 3.390625 7.574218 7.574219 7.574218h220.65625v14.074219c0 4.183594 3.390625 7.574219 7.574219 7.574219 4.179687 0 7.574218-3.390625 7.574218-7.574219v-107.71875c4.140625.480469 8.351563.738281 12.621094.738281s8.480469-.257812 12.621094-.738281v150.199219h-25.246094v-7.039063c0-4.183593-3.390625-7.574219-7.574219-7.574219-4.183593 0-7.574219 3.390626-7.574219 7.574219v14.613281c0 4.179688 3.390626 7.570313 7.574219 7.570313h40.394531c4.183594 0 7.574219-3.390625 7.574219-7.570313v-64.128906h220.65625c4.183594 0 7.574219-3.390625 7.574219-7.574218v-74.097657c0-4.183593-3.390625-7.574219-7.574219-7.574219-4.183593 0-7.574219 3.390626-7.574219 7.574219v66.523438h-213.082031v-16.15625h189.351563c4.183594 0 7.574218-3.390625 7.574218-7.574219v-298.414062h16.15625v220.402343c0 4.183594 3.390626 7.574219 7.574219 7.574219zm-457.972656 41.65625h149.097656c11.894531 0 23.371094 3.996094 32.679688 11.289062v9.917969h-181.777344zm181.777344-6.804688c-9.949219-5.4375-21.164063-8.34375-32.679688-8.34375h-149.097656v-200.667968c0-4.183594-3.390625-7.574219-7.574219-7.574219s-7.574218 3.390625-7.574218 7.574219v244.597656c0 4.183594 3.390624 7.574219 7.574218 7.574219h189.351563v16.15625h-213.082031v-322.144531h16.15625v18.238281c0 4.183593 3.390624 7.574219 7.574218 7.574219s7.574219-3.390626 7.574219-7.574219v-37.425781h149.097656c14.519531 0 28.566407 6.054687 38.542969 16.609374l14.332031 15.179688v14.929688c-56.339843 3.902343-100.984375 50.980468-100.984375 108.292968 0 50.265625 34.339844 92.652344 80.789063 104.953125zm-65.640625-127.003906c0-51.507812 41.902344-93.410156 93.410156-93.410156s93.410156 41.902344 93.410156 93.410156c0 51.511719-41.902344 93.414063-93.410156 93.414063s-93.410156-41.902344-93.410156-93.414063zm201.96875 0c0-57.3125-44.644532-104.386718-100.984375-108.289062v-14.929688l14.332031-15.179687c9.976562-10.558594 24.027344-16.613281 38.542969-16.613281h149.097656v273.671874h-149.097656c-11.515625 0-22.730469 2.90625-32.679688 8.34375v-22.046874c46.449219-12.300782 80.789063-54.691407 80.789063-104.957032zm-80.789063 155.015625v-9.917969c9.308594-7.292968 20.785157-11.289062 32.679688-11.289062h149.097656v21.207031zm0 0"/><path d="m256 91.898438c-43.15625 0-78.265625 35.109374-78.265625 78.261718 0 43.15625 35.109375 78.265625 78.265625 78.265625s78.265625-35.109375 78.265625-78.265625c0-43.152344-35.109375-78.261718-78.265625-78.261718zm0 141.378906c-34.804688 0-63.117188-28.3125-63.117188-63.117188 0-34.800781 28.3125-63.113281 63.117188-63.113281s63.117188 28.3125 63.117188 63.113281c0 34.804688-28.3125 63.117188-63.117188 63.117188zm0 0"/></svg>