<svg height="512pt" viewBox="0 0 512 512" width="512pt" xmlns="http://www.w3.org/2000/svg"><path d="m504.425781 34.335938h-38.878906v-26.761719c0-4.183594-3.390625-7.574219-7.574219-7.574219h-32.316406c-4.183594 0-7.574219 3.390625-7.574219 7.574219v26.761719h-45.445312v-26.761719c0-4.183594-3.390625-7.574219-7.574219-7.574219h-32.3125c-4.183594 0-7.574219 3.390625-7.574219 7.574219v26.761719h-45.445312v-26.761719c0-4.183594-3.390625-7.574219-7.574219-7.574219h-32.3125c-4.183594 0-7.574219 3.390625-7.574219 7.574219v26.761719h-45.445312v-26.761719c0-4.183594-3.390625-7.574219-7.574219-7.574219h-32.316406c-4.183594 0-7.574219 3.390625-7.574219 7.574219v26.761719h-45.441406v-26.761719c0-4.183594-3.390625-7.574219-7.574219-7.574219h-32.316406c-4.183594 0-7.574219 3.390625-7.574219 7.574219v26.761719h-38.878906c-4.183594 0-7.574219 3.390624-7.574219 7.574218v174.199219c0 4.183594 3.390625 7.574219 7.574219 7.574219 4.183593 0 7.574219-3.390625 7.574219-7.574219v-85.835937h481.703124v227.21875c0 4.183593 3.390626 7.574218 7.574219 7.574218 4.183594 0 7.574219-3.390625 7.574219-7.574218v-315.582032c0-4.183594-3.390625-7.574218-7.574219-7.574218zm-71.195312-19.1875h17.167969v57.5625h-17.167969zm-92.90625 0h17.167969v57.5625h-17.167969zm-92.910157 0h17.171876v57.5625h-17.171876zm-92.90625 0h17.167969v57.5625h-17.167969zm-92.90625 0h17.167969v57.5625h-17.167969zm-46.453124 34.335937h31.304687v30.800781c0 4.183594 3.390625 7.574219 7.574219 7.574219h32.316406c4.183594 0 7.574219-3.390625 7.574219-7.574219v-30.800781h45.445312v30.800781c0 4.183594 3.390625 7.574219 7.574219 7.574219h32.316406c4.179688 0 7.570313-3.390625 7.570313-7.574219v-30.800781h45.445312v30.800781c0 4.183594 3.390625 7.574219 7.574219 7.574219h32.316406c4.183594 0 7.574219-3.390625 7.574219-7.574219v-30.800781h45.445313v30.800781c0 4.183594 3.390624 7.574219 7.574218 7.574219h32.3125c4.183594 0 7.574219-3.390625 7.574219-7.574219v-30.800781h45.445313v30.800781c0 4.183594 3.390624 7.574219 7.574218 7.574219h32.316406c4.183594 0 7.574219-3.390625 7.574219-7.574219v-30.800781h31.304688v65.640625h-481.707031zm0 0"/><path d="m504.425781 385.167969c-4.183593 0-7.574219 3.390625-7.574219 7.574219v104.109374h-481.703124v-245.492187c0-4.179687-3.390626-7.574219-7.574219-7.574219-4.183594 0-7.574219 3.394532-7.574219 7.574219v253.066406c0 4.183594 3.390625 7.574219 7.574219 7.574219h496.851562c4.183594 0 7.574219-3.390625 7.574219-7.574219v-111.683593c0-4.183594-3.390625-7.574219-7.574219-7.574219zm0 0"/><path d="m39.890625 203.992188h121.183594c4.183593 0 7.574219-3.390626 7.574219-7.574219v-34.335938c0-4.183593-3.390626-7.574219-7.574219-7.574219h-121.183594c-4.183594 0-7.574219 3.390626-7.574219 7.574219v34.335938c0 4.183593 3.390625 7.574219 7.574219 7.574219zm7.574219-34.335938h106.035156v19.1875h-106.035156zm0 0"/><path d="m195.40625 203.992188h121.183594c4.183594 0 7.574218-3.390626 7.574218-7.574219v-34.335938c0-4.183593-3.390624-7.574219-7.574218-7.574219h-121.183594c-4.179688 0-7.570312 3.390626-7.570312 7.574219v34.335938c0 4.183593 3.390624 7.574219 7.570312 7.574219zm7.574219-34.335938h106.039062v19.1875h-106.039062zm0 0"/><path d="m350.925781 203.992188h121.183594c4.183594 0 7.574219-3.390626 7.574219-7.574219v-34.335938c0-4.183593-3.390625-7.574219-7.574219-7.574219h-121.183594c-4.183593 0-7.574219 3.390626-7.574219 7.574219v34.335938c0 4.183593 3.390626 7.574219 7.574219 7.574219zm7.574219-34.335938h106.035156v19.1875h-106.035156zm0 0"/><path d="m39.890625 235.296875h121.183594c4.183593 0 7.574219-3.390625 7.574219-7.574219s-3.390626-7.574218-7.574219-7.574218h-121.183594c-4.183594 0-7.574219 3.390624-7.574219 7.574218s3.390625 7.574219 7.574219 7.574219zm0 0"/><path d="m39.890625 276.703125h121.183594c4.183593 0 7.574219-3.390625 7.574219-7.574219s-3.390626-7.574218-7.574219-7.574218h-121.183594c-4.183594 0-7.574219 3.390624-7.574219 7.574218s3.390625 7.574219 7.574219 7.574219zm0 0"/><path d="m195.40625 235.296875h121.183594c4.183594 0 7.574218-3.390625 7.574218-7.574219s-3.390624-7.574218-7.574218-7.574218h-121.183594c-4.179688 0-7.570312 3.390624-7.570312 7.574218s3.390624 7.574219 7.570312 7.574219zm0 0"/><path d="m195.40625 276.703125h121.183594c4.183594 0 7.574218-3.390625 7.574218-7.574219s-3.390624-7.574218-7.574218-7.574218h-121.183594c-4.179688 0-7.570312 3.390624-7.570312 7.574218s3.390624 7.574219 7.570312 7.574219zm0 0"/><path d="m350.925781 235.296875h121.183594c4.183594 0 7.574219-3.390625 7.574219-7.574219s-3.390625-7.574218-7.574219-7.574218h-121.183594c-4.183593 0-7.574219 3.390624-7.574219 7.574218s3.390626 7.574219 7.574219 7.574219zm0 0"/><path d="m350.925781 276.703125h121.183594c4.183594 0 7.574219-3.390625 7.574219-7.574219s-3.390625-7.574218-7.574219-7.574218h-121.183594c-4.183593 0-7.574219 3.390624-7.574219 7.574218s3.390626 7.574219 7.574219 7.574219zm0 0"/><path d="m32.316406 364.054688c0 4.183593 3.390625 7.574218 7.574219 7.574218h121.183594c4.183593 0 7.574219-3.390625 7.574219-7.574218v-34.335938c0-4.183594-3.390626-7.574219-7.574219-7.574219h-121.183594c-4.183594 0-7.574219 3.390625-7.574219 7.574219zm15.148438-26.761719h106.035156v19.1875h-106.035156zm0 0"/><path d="m187.835938 364.054688c0 4.183593 3.390624 7.574218 7.570312 7.574218h121.183594c4.183594 0 7.574218-3.390625 7.574218-7.574218v-34.335938c0-4.183594-3.390624-7.574219-7.574218-7.574219h-121.183594c-4.179688 0-7.570312 3.390625-7.570312 7.574219zm15.144531-26.761719h106.039062v19.1875h-106.039062zm0 0"/><path d="m343.351562 364.054688c0 4.183593 3.390626 7.574218 7.574219 7.574218h121.183594c4.183594 0 7.574219-3.390625 7.574219-7.574218v-34.335938c0-4.183594-3.390625-7.574219-7.574219-7.574219h-121.183594c-4.183593 0-7.574219 3.390625-7.574219 7.574219zm15.148438-26.761719h106.035156v19.1875h-106.035156zm0 0"/><path d="m39.890625 402.933594h121.183594c4.183593 0 7.574219-3.390625 7.574219-7.574219 0-4.179687-3.390626-7.574219-7.574219-7.574219h-121.183594c-4.183594 0-7.574219 3.394532-7.574219 7.574219 0 4.183594 3.390625 7.574219 7.574219 7.574219zm0 0"/><path d="m39.890625 444.339844h121.183594c4.183593 0 7.574219-3.390625 7.574219-7.574219s-3.390626-7.574219-7.574219-7.574219h-121.183594c-4.183594 0-7.574219 3.390625-7.574219 7.574219s3.390625 7.574219 7.574219 7.574219zm0 0"/><path d="m195.40625 402.933594h121.183594c4.183594 0 7.574218-3.390625 7.574218-7.574219 0-4.179687-3.390624-7.574219-7.574218-7.574219h-121.183594c-4.179688 0-7.570312 3.394532-7.570312 7.574219 0 4.183594 3.390624 7.574219 7.570312 7.574219zm0 0"/><path d="m195.40625 444.339844h121.183594c4.183594 0 7.574218-3.390625 7.574218-7.574219s-3.390624-7.574219-7.574218-7.574219h-121.183594c-4.179688 0-7.570312 3.390625-7.570312 7.574219s3.390624 7.574219 7.570312 7.574219zm0 0"/><path d="m350.925781 402.933594h121.183594c4.183594 0 7.574219-3.390625 7.574219-7.574219 0-4.179687-3.390625-7.574219-7.574219-7.574219h-121.183594c-4.183593 0-7.574219 3.394532-7.574219 7.574219 0 4.183594 3.390626 7.574219 7.574219 7.574219zm0 0"/><path d="m350.925781 444.339844h121.183594c4.183594 0 7.574219-3.390625 7.574219-7.574219s-3.390625-7.574219-7.574219-7.574219h-121.183594c-4.183593 0-7.574219 3.390625-7.574219 7.574219s3.390626 7.574219 7.574219 7.574219zm0 0"/></svg>