<svg height="512pt" viewBox="0 -153 512 511" width="512pt" xmlns="http://www.w3.org/2000/svg"><path d="m483.851562 11.078125c-.847656-.316406-1.746093-.480469-2.652343-.480469h-15.4375c-6.933594-8.074218-15.296875-10.097656-21.925781-10.097656h-309.503907c-4.183593 0-7.574219 3.390625-7.574219 7.574219 0 4.183593 3.390626 7.574219 7.574219 7.574219h36.417969c-4.671875 10.847656-10.183594 28.949218-10.183594 54.027343 0 25.402344 5.648438 43.984375 10.335938 55.039063h-102.738282c-18.011718 0-20.699218-34.484375-20.699218-55.039063 0-24.648437 3.589844-54.027343 20.699218-54.027343h30.675782c4.183594 0 7.574218-3.390626 7.574218-7.574219 0-4.183594-3.390624-7.574219-7.574218-7.574219h-30.675782c-6.628906 0-14.992187 2.023438-21.925781 10.097656h-15.4375c-.90625 0-1.804687.164063-2.652343.480469-17.578126 6.570313-28.0937505 28.410156-28.148438 58.453125v.054688.179687.027344c.0273438 30.046875 10.546875 51.902343 28.148438 58.480469.847656.316406 1.746093.480468 2.652343.480468h14.8125c7.054688 8.90625 15.722657 11.105469 22.550781 11.105469h130.777344v58.070313c0 2.519531 1.257813 4.878906 3.351563 6.285156s4.753906 1.679687 7.085937.726562l46.621094-19.03125 46.621094 19.03125c.921875.375 1.894531.5625 2.859375.5625 1.484375 0 2.960937-.4375 4.226562-1.289062 2.09375-1.40625 3.351563-3.765625 3.351563-6.285156v-58.070313h48.503906c4.183594 0 7.574219-3.390625 7.574219-7.574219 0-4.179687-3.390625-7.570312-7.574219-7.570312h-19.453125c4.6875-11.054688 10.332031-29.636719 10.332031-55.039063 0-25.078125-5.511718-43.179687-10.183594-54.027343h101.578126c17.109374 0 20.699218 29.378906 20.699218 54.027343 0 20.554688-2.6875 55.039063-20.699218 55.039063h-46.875c-4.183594 0-7.574219 3.390625-7.574219 7.570312 0 4.183594 3.390625 7.574219 7.574219 7.574219h46.875c6.828124 0 15.496093-2.199219 22.550781-11.105469h14.8125c.90625 0 1.804687-.164062 2.652343-.480468 17.578126-6.570313 28.09375-28.410157 28.148438-58.453126 0-.015624 0-.035156 0-.054687v-.179687c0-.019532 0-.035157 0-.054688-.054688-30.042969-10.570312-51.882812-28.148438-58.453125zm-468.703124 58.597656c.015624-22.039062 6.710937-39.042969 17.164062-43.929687h5.664062c-3.800781 10.964844-5.660156 25.375-5.660156 43.929687 0 18.136719 1.859375 32.882813 5.515625 43.929688h-5.519531c-10.457031-4.882813-17.148438-21.855469-17.164062-43.929688zm297.910156 3.027344c0 31.464844-25.597656 57.058594-57.058594 57.058594s-57.058594-25.597657-57.058594-57.058594 25.597656-57.054687 57.058594-57.054687 57.058594 25.59375 57.058594 57.054687zm-125.40625 52.011719c-3.789063-7.226563-11.9375-26.136719-11.9375-55.039063 0-28.8125 8.101562-47.105469 11.851562-54.027343h24.261719c-17.039063 13.21875-28.03125 33.871093-28.03125 57.054687 0 16.632813 5.664063 31.953125 15.144531 44.175781v7.835938zm110.257812 61.941406-39.046875-15.9375c-1.835937-.75-3.890625-.75-5.726562 0l-39.046875 15.9375v-55.210938c11.828125 8.464844 26.292968 13.464844 41.910156 13.464844s30.082031-5 41.910156-13.464844zm39.382813-116.980469c0 28.917969-8.15625 47.832031-11.933594 55.039063h-12.300781v-7.835938c9.480468-12.222656 15.144531-27.542968 15.144531-44.175781 0-23.183594-10.992187-43.835937-28.03125-57.054687h25.269531c3.765625 6.949218 11.851563 25.238281 11.851563 54.027343zm142.394531 43.929688h-5.519531c3.65625-11.046875 5.515625-25.792969 5.515625-43.929688 0-18.554687-1.859375-32.964843-5.660156-43.929687h5.667968c10.453125 4.886718 17.144532 21.890625 17.160156 43.929687-.015624 22.042969-6.707031 39.042969-17.164062 43.929688zm0 0"/><path d="m256 112.59375c21.996094 0 39.890625-17.894531 39.890625-39.890625 0-21.992187-17.894531-39.886719-39.890625-39.886719s-39.890625 17.894532-39.890625 39.886719c0 21.996094 17.894531 39.890625 39.890625 39.890625zm0-64.628906c13.644531 0 24.742188 11.097656 24.742188 24.742187 0 13.640625-11.097657 24.742188-24.742188 24.742188s-24.742188-11.101563-24.742188-24.742188c0-13.644531 11.101563-24.742187 24.742188-24.742187zm0 0"/></svg>