<svg height="512pt" viewBox="0 0 512 512" width="512pt" xmlns="http://www.w3.org/2000/svg"><path d="m475.804688 124.691406c-2.152344-3.589844-6.800782-4.753906-10.390626-2.605468-3.589843 2.148437-4.753906 6.796874-2.605468 10.386718 22.269531 37.207032 34.042968 79.921875 34.042968 123.527344 0 132.808594-108.042968 240.851562-240.851562 240.851562-132.804688 0-240.851562-108.042968-240.851562-240.851562s108.046874-240.851562 240.851562-240.851562c73.324219 0 141.765625 32.804687 187.777344 90.007812 2.621094 3.257812 7.386718 3.777344 10.648437 1.15625 3.257813-2.621094 3.777344-7.390625 1.152344-10.652344-48.898437-60.792968-121.644531-95.660156-199.578125-95.660156-68.378906 0-132.667969 26.628906-181.019531 74.980469-48.351563 48.351562-74.980469 112.636719-74.980469 181.019531s26.628906 132.667969 74.980469 181.019531c48.351562 48.351563 112.640625 74.980469 181.019531 74.980469 68.382812 0 132.667969-26.628906 181.019531-74.980469 48.351563-48.351562 74.980469-112.636719 74.980469-181.019531 0-46.347656-12.515625-91.75-36.195312-131.308594zm0 0"/><path d="m256 50.492188c-113.316406 0-205.507812 92.191406-205.507812 205.507812s92.191406 205.507812 205.507812 205.507812 205.507812-92.191406 205.507812-205.507812-92.191406-205.507812-205.507812-205.507812zm101.632812 366.394531-6.207031-10.75c-2.089843-3.621094-6.722656-4.863281-10.34375-2.773438-3.621093 2.09375-4.863281 6.726563-2.773437 10.347657l6.21875 10.769531c-24.363282 12.847656-51.824219 20.570312-80.953125 21.714843v-12.460937c0-4.179687-3.390625-7.574219-7.574219-7.574219s-7.574219 3.394532-7.574219 7.574219v12.460937c-29.125-1.144531-56.589843-8.867187-80.949219-21.714843l6.214844-10.769531c2.09375-3.621094.851563-8.253907-2.769531-10.347657-3.621094-2.089843-8.253906-.847656-10.347656 2.773438l-6.207031 10.75c-23.851563-15.121094-44.128907-35.398438-59.25-59.253907l10.746093-6.203124c3.625-2.09375 4.867188-6.726563 2.773438-10.347657-2.089844-3.621093-6.722657-4.863281-10.347657-2.773437l-10.765624 6.21875c-12.851563-24.359375-20.570313-51.824219-21.714844-80.953125h12.457031c4.183594 0 7.574219-3.390625 7.574219-7.570313 0-4.183594-3.390625-7.574218-7.574219-7.574218h-12.460937c1.144531-29.128907 8.867187-56.59375 21.714843-80.953126l10.769531 6.21875c1.191407.6875 2.496094 1.015626 3.78125 1.015626 2.617188 0 5.160157-1.359376 6.566407-3.789063 2.089843-3.621094.847656-8.253906-2.773438-10.347656l-10.75-6.203125c15.125-23.855469 35.398438-44.132813 59.253907-59.253906l6.207031 10.75c1.402343 2.429687 3.949219 3.789062 6.566406 3.789062 1.285156 0 2.585937-.328125 3.777344-1.015625 3.621093-2.09375 4.863281-6.726563 2.773437-10.347656l-6.21875-10.769531c24.363282-12.847657 51.824219-20.570313 80.953125-21.714844v12.460937c0 4.179688 3.390625 7.574219 7.574219 7.574219s7.574219-3.394531 7.574219-7.574219v-12.464843c29.125 1.144531 56.589843 8.867187 80.949219 21.714843l-6.214844 10.769531c-2.09375 3.621094-.851563 8.253907 2.769531 10.347657 1.195313.6875 2.496094 1.015625 3.78125 1.015625 2.617187 0 5.164063-1.359375 6.566406-3.789063l6.207031-10.75c23.851563 15.121094 44.128907 35.398438 59.25 59.253907l-10.75 6.203124c-3.621093 2.09375-4.863281 6.726563-2.769531 10.347657 1.402344 2.429687 3.949219 3.789062 6.566407 3.789062 1.285156 0 2.585937-.328125 3.777343-1.015625l10.769531-6.21875c12.851563 24.359375 20.570313 51.824219 21.714844 80.953125h-12.457031c-4.183594 0-7.574219 3.390625-7.574219 7.570313 0 4.183594 3.390625 7.574218 7.574219 7.574218h12.457031c-1.144531 29.128907-8.863281 56.59375-21.714844 80.953126l-10.769531-6.21875c-3.621093-2.089844-8.253906-.851563-10.34375 2.773437-2.09375 3.621094-.851562 8.253906 2.769531 10.347656l10.75 6.203125c-15.117187 23.859375-35.394531 44.136719-59.25 59.257813zm0 0"/><path d="m342.75 309.1875-49.105469-49.097656c.144531-1.34375.222657-2.707032.222657-4.089844 0-11.902344-5.523438-22.535156-14.136719-29.480469v-99.78125c0-6.332031-2.460938-12.289062-6.953125-16.796875-4.488282-4.472656-10.449219-6.933594-16.777344-6.933594-13.085938 0-23.734375 10.644532-23.734375 23.730469v18.765625c0 4.183594 3.390625 7.574219 7.574219 7.574219s7.574218-3.390625 7.574218-7.574219v-18.765625c0-4.734375 3.851563-8.585937 8.585938-8.585937 2.296875 0 4.457031.894531 6.066406 2.5 1.621094 1.628906 2.515625 3.789062 2.515625 6.085937v92.386719c-2.757812-.644531-5.628906-.992188-8.582031-.992188s-5.824219.347657-8.585938.992188v-38.359375c0-4.183594-3.390624-7.574219-7.574218-7.574219s-7.574219 3.390625-7.574219 7.574219v45.753906c-8.613281 6.945313-14.136719 17.578125-14.136719 29.480469 0 7.707031 2.320313 14.878906 6.289063 20.867188l-76.78125 76.78125c-2.957031 2.960937-2.957031 7.753906 0 10.714843 1.480469 1.476563 3.417969 2.214844 5.355469 2.214844s3.878906-.738281 5.355468-2.214844l76.785156-76.785156c5.984376 3.972656 13.160157 6.292969 20.867188 6.292969 1.472656 0 2.925781-.09375 4.355469-.257813.300781.488281.660156.953125 1.082031 1.378907l47.75 47.757812c4.472656 4.492188 10.441406 6.964844 16.796875 6.964844 6.332031 0 12.292969-2.46875 16.777344-6.953125 2.890625-2.894531 4.878906-6.351563 5.964843-10.023438 2.382813-8.074219.394532-17.179687-5.964843-23.542969-.003907-.003906-.007813-.003906-.011719-.007812zm-109.472656-53.1875c0-12.527344 10.195312-22.722656 22.722656-22.722656s22.722656 10.195312 22.722656 22.722656-10.195312 22.722656-22.722656 22.722656-22.722656-10.195312-22.722656-22.722656zm98.773437 76.050781c-1.625 1.621094-3.777343 2.515625-6.066406 2.515625-.289063 0-.574219-.011718-.855469-.039062-1.976562-.195313-3.804687-1.054688-5.222656-2.476563l-43.902344-43.914062c4.90625-3.066407 9.066406-7.226563 12.132813-12.132813l43.914062 43.90625c3.347657 3.34375 3.347657 8.792969 0 12.140625zm0 0"/></svg>