<svg height="512pt" viewBox="0 -12 512 512" width="512pt" xmlns="http://www.w3.org/2000/svg"><path d="m504.425781 0h-345.371093c-4.183594 0-7.574219 3.390625-7.574219 7.574219v119.667969h-143.90625c-4.183594 0-7.574219 3.390624-7.574219 7.574218v130.242188c0 4.179687 3.390625 7.574218 7.574219 7.574218 4.183593 0 7.574219-3.394531 7.574219-7.574218v-58.039063h330.222656v188.339844c0 15.871094-12.910156 28.78125-28.777344 28.78125-15.871094 0-28.78125-12.910156-28.78125-28.78125 0-2.84375-1.597656-5.453125-4.132812-6.746094-2.535157-1.296875-5.582032-1.058593-7.882813.613281l-115.160156 83.386719h-145.488281v-172.117187c0-4.183594-3.390626-7.574219-7.574219-7.574219-4.183594 0-7.574219 3.390625-7.574219 7.574219v179.691406c0 4.183594 3.390625 7.574219 7.574219 7.574219h155.503906c.003906 0 .007813.003906.015625.003906.378906 0 .765625-.035156 1.148438-.09375.132812-.019531.265624-.0625.398437-.089844.21875-.046875.441406-.082031.660156-.148437l163.460938-49.855469h.007812c.003907-.003906.011719-.003906.015625-.007813.070313-.019531.136719-.050781.207032-.074218 18.203124-5.367188 31.527343-22.21875 31.527343-42.136719v-34.839844h143.90625c4.183594 0 7.574219-3.390625 7.574219-7.574219v-163.535156c0-4.179687-3.390625-7.570312-7.574219-7.570312-4.183593 0-7.574219 3.390625-7.574219 7.570312v155.960938h-136.332031v-210.554688c0-4.183594-3.390625-7.574218-7.574219-7.574218h-186.316406v-47.464844h330.222656v74.226562c0 4.183594 3.390626 7.574219 7.574219 7.574219 4.183594 0 7.574219-3.390625 7.574219-7.574219v-146.429687c0-4.183594-3.390625-7.574219-7.574219-7.574219zm-300.128906 459.703125 70.433594-51.003906c3.183593 9.964843 9.835937 18.398437 18.53125 23.871093zm141.074219-267.832031h-330.222656v-49.480469h330.222656zm-178.742188-127.238282v-49.484374h330.222656v49.484374zm0 0"/><path d="m56.046875 253.476562h248.425781c4.183594 0 7.574219-3.390624 7.574219-7.574218s-3.390625-7.574219-7.574219-7.574219h-248.425781c-4.183594 0-7.574219 3.390625-7.574219 7.574219s3.390625 7.574218 7.574219 7.574218zm0 0"/><path d="m56.046875 301.949219h248.425781c4.183594 0 7.574219-3.390625 7.574219-7.574219s-3.390625-7.574219-7.574219-7.574219h-248.425781c-4.183594 0-7.574219 3.390625-7.574219 7.574219s3.390625 7.574219 7.574219 7.574219zm0 0"/><path d="m56.046875 350.421875h127.242187c4.183594 0 7.574219-3.390625 7.574219-7.574219s-3.390625-7.574218-7.574219-7.574218h-127.242187c-4.183594 0-7.574219 3.390624-7.574219 7.574218s3.390625 7.574219 7.574219 7.574219zm0 0"/><path d="m56.046875 398.894531h67.660156c4.183594 0 7.574219-3.390625 7.574219-7.574219 0-4.183593-3.390625-7.574218-7.574219-7.574218h-67.660156c-4.183594 0-7.574219 3.390625-7.574219 7.574218 0 4.183594 3.390625 7.574219 7.574219 7.574219zm0 0"/></svg>