<svg height="512pt" viewBox="-83 0 512 512" width="512pt" xmlns="http://www.w3.org/2000/svg"><path d="m318.609375 436.261719h-6.5625v-10.605469c0-19.496094-14.8125-35.59375-33.773437-37.644531l-7.167969-88.570313c-.339844-4.167968-3.988281-7.28125-8.160157-6.9375-4.171874.339844-7.277343 3.992188-6.9375 8.160156l7.050782 87.121094h-179.734375l15.941406-196.921875h147.851563l6.046874 74.710938c.320313 3.960937 3.636719 6.964843 7.542969 6.964843.203125 0 .410157-.007812.617188-.027343 4.171875-.335938 7.277343-3.988281 6.9375-8.160157l-5.949219-73.507812c9.570312-.203125 17.296875-8.035156 17.296875-17.652344v-28.277344c0-7.335937-4.5-13.640624-10.882813-16.308593l32.785157-32.875c1.414062-1.421875 2.210937-3.34375 2.210937-5.347657v-82.808593c0-4.183594-3.390625-7.574219-7.574218-7.574219h-52.390626c-4.183593 0-7.574218 3.390625-7.574218 7.574219v55.035156h-24.113282v-55.035156c0-4.183594-3.390624-7.574219-7.574218-7.574219h-62.609375c-4.183594 0-7.574219 3.390625-7.574219 7.574219v55.035156h-24.113281v-55.035156c0-4.183594-3.390625-7.574219-7.574219-7.574219h-51.628906c-4.179688 0-7.570313 3.390625-7.570313 7.574219v82.808593c0 2.003907.792969 3.929688 2.210938 5.347657l32.78125 32.875c-6.382813 2.667969-10.878907 8.972656-10.878907 16.308593v28.277344c0 9.359375 7.320313 17.023438 16.53125 17.617188l-15.960937 197.203125c-18.960937 2.050781-33.773437 18.148437-33.773437 37.644531v10.605469h-6.566407c-15.3125 0-27.769531 12.457031-27.769531 27.769531v20.199219c0 15.3125 12.457031 27.769531 27.769531 27.769531h28.867188c4.183593 0 7.574219-3.390625 7.574219-7.574219 0-4.183593-3.390626-7.574219-7.574219-7.574219h-28.867188c-6.960937 0-12.621093-5.664062-12.621093-12.621093v-20.199219c0-6.960938 5.664062-12.621094 12.621093-12.621094h290.839844c6.960937 0 12.625 5.660156 12.625 12.621094v20.199219c0 6.960937-5.664063 12.621093-12.625 12.621093h-226.671875c-4.179688 0-7.574219 3.390626-7.574219 7.574219 0 4.183594 3.394531 7.574219 7.574219 7.574219h226.671875c15.316406 0 27.773437-12.460938 27.773437-27.769531v-20.199219c0-15.3125-12.457031-27.769531-27.773437-27.769531zm-235.921875-263.070313v-28.277344c0-1.390624 1.132812-2.523437 2.523438-2.523437h42.117187c4.183594 0 7.574219-3.390625 7.574219-7.574219s-3.390625-7.574218-7.574219-7.574218h-28.875l-39.878906-39.992188v-72.101562h36.476562v55.035156c0 4.183594 3.390625 7.574218 7.574219 7.574218h39.261719c4.183593 0 7.574219-3.390624 7.574219-7.574218v-55.035156h47.464843v55.035156c0 4.183594 3.390625 7.574218 7.574219 7.574218h39.261719c4.183593 0 7.574219-3.390624 7.574219-7.574218v-55.035156h37.242187v72.105468l-39.882813 39.988282h-86.148437c-4.183594 0-7.574219 3.390624-7.574219 7.574218s3.390625 7.574219 7.574219 7.574219h99.390625c1.394531 0 2.527344 1.132813 2.527344 2.523437v28.277344c0 1.394532-1.132813 2.527344-2.527344 2.527344h-176.726562c-1.394532-.003906-2.523438-1.132812-2.523438-2.527344zm-33.203125 263.070313v-10.605469c0-12.527344 10.191406-22.722656 22.71875-22.722656h201.976563c12.527343 0 22.71875 10.195312 22.71875 22.722656v10.605469zm0 0"/></svg>