<svg height="511pt" viewBox="-31 1 511 511.999" width="511pt" xmlns="http://www.w3.org/2000/svg"><path d="m187.828125 42.917969c0 7.808593-6.328125 14.140625-14.136719 14.140625s-14.140625-6.332032-14.140625-14.140625c0-7.808594 6.332031-14.136719 14.140625-14.136719s14.136719 6.328125 14.136719 14.136719zm0 0"/><path d="m319.109375 70.691406h-99.46875v-24.742187c0-25.335938-20.613281-45.949219-45.949219-45.949219-25.335937 0-45.949218 20.613281-45.949218 45.949219v24.742187h-99.472657c-15.3125 0-27.769531 12.457032-27.769531 27.769532v385.765624c0 15.3125 12.457031 27.773438 27.769531 27.773438h290.839844c15.3125 0 27.773437-12.460938 27.773437-27.773438v-154c0-4.183593-3.390624-7.574218-7.574218-7.574218s-7.574219 3.390625-7.574219 7.574218v154.003907c0 6.960937-5.664063 12.621093-12.625 12.621093h-290.839844c-6.960937 0-12.621093-5.664062-12.621093-12.621093v-385.769531c0-6.960938 5.660156-12.621094 12.621093-12.621094h290.839844c6.960937 0 12.625 5.664062 12.625 12.621094v196.546874c0 4.179688 3.390625 7.570313 7.574219 7.570313s7.574218-3.390625 7.574218-7.570313v-196.546874c0-15.3125-12.460937-27.769532-27.773437-27.769532zm-176.21875-24.742187c0-16.984375 13.816406-30.800781 30.800781-30.800781s30.800782 13.816406 30.800782 30.800781v24.742187h-61.601563zm0 0"/><path d="m242.363281 145.421875h-137.34375c-4.183593 0-7.574219 3.390625-7.574219 7.570313 0 4.183593 3.390626 7.574218 7.574219 7.574218h137.339844c4.183594 0 7.574219-3.390625 7.574219-7.574218 0-4.179688-3.390625-7.570313-7.570313-7.570313zm0 0"/><path d="m40.386719 231.890625c-4.179688 0-7.570313 3.390625-7.570313 7.574219v232.644531c0 4.183594 3.390625 7.574219 7.570313 7.574219h266.605469c4.183593 0 7.574218-3.390625 7.574218-7.574219v-361.53125c0-4.179687-3.390625-7.570313-7.574218-7.570313h-266.605469c-4.179688 0-7.570313 3.390626-7.570313 7.570313v93.507813c0 4.183593 3.390625 7.574218 7.570313 7.574218 4.183593 0 7.574219-3.390625 7.574219-7.574218v-85.933594h251.457031v346.382812h-251.457031v-225.070312c0-4.183594-3.390626-7.574219-7.574219-7.574219zm0 0"/><path d="m70.179688 205.507812v40.394532c0 4.183594 3.390624 7.574218 7.574218 7.574218h41.402344c4.183594 0 7.574219-3.390624 7.574219-7.574218v-40.394532c0-4.183593-3.390625-7.574218-7.574219-7.574218h-41.402344c-4.183594 0-7.574218 3.390625-7.574218 7.574218zm15.148437 7.574219h26.253906v25.246094h-26.253906zm0 0"/><path d="m269.628906 198.941406h-123.203125c-4.183593 0-7.574219 3.394532-7.574219 7.574219 0 4.183594 3.390626 7.574219 7.574219 7.574219h123.203125c4.179688 0 7.574219-3.390625 7.574219-7.574219s-3.394531-7.574219-7.574219-7.574219zm0 0"/><path d="m146.425781 253.476562h72.707031c4.183594 0 7.574219-3.390624 7.574219-7.574218s-3.390625-7.574219-7.574219-7.574219h-72.707031c-4.183593 0-7.574219 3.390625-7.574219 7.574219s3.390626 7.574218 7.574219 7.574218zm0 0"/><path d="m70.179688 335.777344c0 4.183594 3.390624 7.574218 7.574218 7.574218h41.402344c4.183594 0 7.574219-3.390624 7.574219-7.574218v-40.390625c0-4.183594-3.390625-7.574219-7.574219-7.574219h-41.402344c-4.183594 0-7.574218 3.390625-7.574218 7.574219zm15.148437-32.816406h26.253906v25.246093h-26.253906zm0 0"/><path d="m269.628906 288.820312h-123.203125c-4.183593 0-7.574219 3.390626-7.574219 7.574219 0 4.183594 3.390626 7.574219 7.574219 7.574219h123.203125c4.179688 0 7.574219-3.390625 7.574219-7.574219 0-4.183593-3.394531-7.574219-7.574219-7.574219zm0 0"/><path d="m146.425781 343.351562h72.707031c4.183594 0 7.574219-3.390624 7.574219-7.574218 0-4.179688-3.390625-7.574219-7.574219-7.574219h-72.707031c-4.183593 0-7.574219 3.394531-7.574219 7.574219 0 4.1875 3.390626 7.574218 7.574219 7.574218zm0 0"/><path d="m70.179688 425.65625c0 4.183594 3.390624 7.574219 7.574218 7.574219h41.402344c4.183594 0 7.574219-3.390625 7.574219-7.574219v-40.394531c0-4.183594-3.390625-7.574219-7.574219-7.574219h-41.402344c-4.183594 0-7.574218 3.390625-7.574218 7.574219zm15.148437-32.820312h26.253906v25.246093h-26.253906zm0 0"/><path d="m277.203125 386.273438c0-4.183594-3.394531-7.574219-7.574219-7.574219h-123.203125c-4.183593 0-7.574219 3.390625-7.574219 7.574219 0 4.179687 3.390626 7.574218 7.574219 7.574218h123.203125c4.179688 0 7.574219-3.390625 7.574219-7.574218zm0 0"/><path d="m146.425781 418.082031c-4.183593 0-7.574219 3.390625-7.574219 7.574219s3.390626 7.574219 7.574219 7.574219h72.707031c4.183594 0 7.574219-3.390625 7.574219-7.574219s-3.390625-7.574219-7.574219-7.574219zm0 0"/><path d="m427.164062 70.691406h-30.292968c-12.53125 0-22.722656 10.191406-22.722656 22.71875v337.296875c0 1.734375.597656 3.421875 1.691406 4.769531l30.292968 37.363282c1.441407 1.773437 3.601563 2.804687 5.882813 2.804687 2.285156 0 4.445313-1.03125 5.886719-2.804687l30.292968-37.363282c1.097657-1.347656 1.691407-3.035156 1.691407-4.769531v-221.667969c0-4.179687-3.390625-7.570312-7.574219-7.570312s-7.574219 3.390625-7.574219 7.570312v218.980469l-22.722656 28.027344-22.71875-28.027344v-284.621093h15.148437v287.308593c0 4.183594 3.390626 7.574219 7.570313 7.574219 4.183594 0 7.574219-3.390625 7.574219-7.574219v-287.308593h15.148437v30.382812c0 4.183594 3.390625 7.574219 7.574219 7.574219s7.574219-3.390625 7.574219-7.574219v-80.371094c0-12.527344-10.191407-22.71875-22.722657-22.71875zm-37.867187 57.5625v-34.84375c0-4.175781 3.398437-7.570312 7.574219-7.570312h30.296875c4.175781 0 7.574219 3.394531 7.574219 7.570312v34.84375zm0 0"/></svg>