<svg height="511pt" viewBox="0 -43 511.99957 511" width="511pt" xmlns="http://www.w3.org/2000/svg"><path d="m504.425781 129.351562c4.183594 0 7.574219-3.390624 7.574219-7.570312v-30.289062c0-4.179688-3.390625-7.570313-7.574219-7.570313h-51.234375c-4.183594 0-7.574218 3.390625-7.574218 7.570313 0 4.183593 3.390624 7.574218 7.574218 7.574218h43.664063v15.140625h-273.101563c-17.535156 0-31.800781 14.269531-31.800781 31.804688 0 14.925781 10.335937 27.476562 24.230469 30.886719v15.445312c-9.664063-1.554688-18.570313-6.074219-25.621094-13.128906-8.871094-8.871094-13.753906-20.660156-13.753906-33.203125 0-25.886719 21.058594-46.945313 46.945312-46.945313h194.351563c4.183593 0 7.570312-3.390625 7.570312-7.574218 0-4.179688-3.386719-7.570313-7.570312-7.570313h-194.351563c-34.238281 0-62.089844 27.851563-62.089844 62.089844 0 16.585937 6.460938 32.179687 18.191407 43.910156 1.058593 1.0625 2.160156 2.0625 3.28125 3.035156h-13.902344c-4.179687 0-7.570313 3.390625-7.570313 7.574219v30.289062c0 4.179688 3.390626 7.570313 7.570313 7.570313h12.621094v33.316406h-12.621094c-4.179687 0-7.570313 3.390625-7.570313 7.574219v30.285156c0 4.183594 3.390626 7.574219 7.570313 7.574219h13.953125c-13.167969 11.394531-21.523438 28.207031-21.523438 46.945313 0 16.585937 6.460938 32.183593 18.191407 43.914062 11.722656 11.722656 27.3125 18.179688 43.898437 18.179688h113.625c4.183594 0 7.570313-3.390626 7.570313-7.574219 0-4.183594-3.386719-7.570313-7.570313-7.570313h-58.601562v-15.144531h205.398437c.019531 0 .039063.003906.058594.003906s.039063-.003906.058594-.003906h12.5625v15.144531h-124.152344c-4.179687 0-7.570313 3.390625-7.570313 7.574219 0 4.179687 3.390626 7.570313 7.570313 7.570313h131.722656c4.183594 0 7.574219-3.390626 7.574219-7.570313v-30.289063c0-4.183593-3.390625-7.574218-7.574219-7.574218h-12.617187v-33.316406h12.617187c4.183594 0 7.574219-3.390626 7.574219-7.570313v-30.289063c0-4.179687-3.390625-7.570312-7.574219-7.570312h-13.898437c1.121094-.972656 2.222656-1.976562 3.28125-3.035156 11.730468-11.734375 18.191406-27.328125 18.191406-43.914063 0-18.738281-8.355469-35.554687-21.523438-46.949219h13.949219c4.183594 0 7.574219-3.390624 7.574219-7.570312v-30.289062c0-4.179688-3.390625-7.570313-7.574219-7.570313h-12.617187v-33.316406h12.617187zm-240.792969 57.613282-12.628906-5.492188c-1.886718-.820312-4.03125-.835937-5.929687-.042968l-13.746094 5.726562v-33.570312h32.308594v33.378906zm-66.632812 51.425781h252.90625c9.1875 0 16.660156 7.476563 16.660156 16.660156 0 6.457031-3.699218 12.054688-9.085937 14.820313v-14.816406c0-4.183594-3.390625-7.574219-7.574219-7.574219h-47.449219c-4.183593 0-7.574219 3.390625-7.574219 7.574219v16.65625h-197.882812zm245.335938 57.804687-13.746094-5.726562c-.933594-.390625-1.921875-.582031-2.914063-.582031-1.027343 0-2.054687.207031-3.015625.625l-12.632812 5.492187v-33.378906h32.308594zm-265.527344 5.800782v-15.144532h12.5625c.019531 0 .039062.003907.058594.003907.019531 0 .039062-.003907.058593-.003907h205.398438v15.144532zm86.824218 103.046875-12.628906-5.492188c-1.886718-.820312-4.03125-.839843-5.929687-.046875l-13.746094 5.730469v-33.570313h32.308594v33.378907zm213.03125-24.296875h-197.886718v-16.652344c0-4.183594-3.390625-7.574219-7.570313-7.574219h-47.453125c-4.179687 0-7.570312 3.390625-7.570312 7.574219v14.8125c-5.386719-2.761719-9.089844-8.359375-9.089844-14.816406 0-9.1875 7.476562-16.660156 16.660156-16.660156h252.910156zm20.191407-63.605469v15.144531h-273.101563c-17.535156 0-31.800781 14.269532-31.800781 31.804688 0 14.925781 10.335937 27.476562 24.230469 30.882812v15.449219c-9.664063-1.558594-18.570313-6.078125-25.621094-13.128906-8.871094-8.871094-13.753906-20.664063-13.753906-33.203125 0-25.886719 21.058594-46.949219 46.945312-46.949219zm0-62.089844c0 12.539063-4.882813 24.332031-13.753907 33.203125-7.054687 7.050782-15.960937 11.570313-25.621093 13.128906v-15.449218c13.890625-3.40625 24.230469-15.957032 24.230469-30.882813 0-17.535156-14.265626-31.804687-31.800782-31.804687h-273.101562v-15.144532h273.101562c25.886719 0 46.945313 21.0625 46.945313 46.949219zm0-62.09375h-218.078125v-15.140625h205.398437.058594.058594 12.5625zm-20.191407-30.285156h-197.886718v-16.65625c0-4.183594-3.390625-7.574219-7.570313-7.574219h-47.453125c-4.179687 0-7.570312 3.390625-7.570312 7.574219v14.816406c-5.386719-2.765625-9.089844-8.363281-9.089844-14.820312 0-9.183594 7.476562-16.660157 16.660156-16.660157h252.910156zm0 0"/><path d="m109.75 205.339844c0-.007813-.003906-.011719-.003906-.019532l-23.992188-111.960937-4.988281-23.265625s0-.003906 0-.007812l-6.558594-30.597657c-.875-4.085937-4.90625-6.691406-8.988281-5.816406l-4.445312.953125-6.027344-28.136719c-.878906-4.089843-4.90625-6.699219-8.992188-5.816406l-35.539062 7.617187c-1.964844.417969-3.679688 1.601563-4.769532 3.289063-1.089843 1.6875-1.46875 3.738281-1.046874 5.699219l6.027343 28.136718-4.441406.953126c-1.960937.417968-3.679687 1.601562-4.769531 3.289062s-1.46875 3.738281-1.046875 5.699219l6.558593 30.601562 7.191407 33.566407c0 .007812.003906.015624.003906.019531l21.789063 101.664062 4.917968 22.945313c.875 4.089844 4.902344 6.703125 8.988282 5.816406 4.089843-.875 6.695312-4.898438 5.820312-8.988281l-3.332031-15.542969 44.421875-9.519531 33.628906 156.914062-16.023438 33.636719-28.398437-24.117188-22.945313-107.054687c-.875-4.089844-4.90625-6.699219-8.992187-5.816406-4.089844.875-6.691406 4.898437-5.816406 8.988281l23.484375 109.574219c.347656 1.636719 1.230468 3.105469 2.5 4.1875l37.867187 32.152343c1.382813 1.171876 3.125 1.800782 4.902344 1.800782.527344 0 1.058594-.054688 1.585937-.167969 2.296876-.492187 4.238282-2.027344 5.25-4.148437l21.363282-44.847657c.71875-1.507812.917968-3.210937.570312-4.84375zm-60.820312 5.289062-18.613282-86.875 14.804688-3.171875 12.800781 59.726563c.761719 3.550781 3.902344 5.984375 7.398437 5.984375.523438 0 1.058594-.054688 1.59375-.167969 4.089844-.878906 6.691407-4.902344 5.816407-8.992188l-12.800781-59.726562 14.808593-3.171875 18.617188 86.875zm-32.367188-151.042968 4.433594-.949219h.007812l35.539063-7.617188h.007812l4.4375-.949219 3.382813 15.792969-22.203125 4.757813s-.003907 0-.007813 0-.007812.003906-.007812.003906l-22.203125 4.757812zm55 39.84375-14.808594 3.171874-4.019531-18.757812 14.808594-3.175781.828125 3.859375zm-48.441406-9.238282 14.808594-3.175781 4.019531 18.757813-14.808594 3.175781-3.925781-18.3125zm2.113281-47.953125-4.441406-20.730469 20.730469-4.441406 4.441406 20.730469-8.703125 1.863281zm0 0"/></svg>